<mxfile host="Electron" agent="Mozilla/5.0 (Macintosh; Intel Mac OS X 10_15_7) AppleWebKit/537.36 (KHTML, like Gecko) draw.io/21.2.1 Chrome/112.0.5615.87 Electron/24.1.2 Safari/537.36" modified="2025-01-22T16:24:17.670Z" version="21.2.1" etag="hetqktH0OAZ9mLfftUXB" type="device">
  <diagram name="Pagina-1" id="lB2_dw7aZwZcbqrPAklW">
    <mxGraphModel dx="1405" dy="731" grid="1" gridSize="10" guides="1" tooltips="1" connect="1" arrows="1" fold="1" page="1" pageScale="1" pageWidth="827" pageHeight="1169" math="0" shadow="0">
      <root>
        <mxCell id="0" />
        <mxCell id="1" parent="0" />
        <mxCell id="rJroq5MfoL-u47yV4zEL-3" value="" style="rounded=0;whiteSpace=wrap;html=1;" parent="1" vertex="1">
          <mxGeometry x="170" y="110" width="1090" height="710" as="geometry" />
        </mxCell>
        <mxCell id="rJroq5MfoL-u47yV4zEL-5" value="" style="rounded=0;whiteSpace=wrap;html=1;" parent="1" vertex="1">
          <mxGeometry x="170" y="90" width="150" height="20" as="geometry" />
        </mxCell>
        <mxCell id="rJroq5MfoL-u47yV4zEL-6" value="MenuManage&lt;span style=&quot;background-color: transparent; color: light-dark(rgb(0, 0, 0), rgb(255, 255, 255));&quot;&gt;ment&lt;/span&gt;" style="text;html=1;align=center;verticalAlign=middle;whiteSpace=wrap;rounded=0;" parent="1" vertex="1">
          <mxGeometry x="200" y="85" width="60" height="30" as="geometry" />
        </mxCell>
        <mxCell id="0cfVb7peKYmuDnX3eAUY-3" value="" style="rounded=0;whiteSpace=wrap;html=1;strokeColor=#B3B3B3;" parent="1" vertex="1">
          <mxGeometry x="1320" y="482" width="330" height="515" as="geometry" />
        </mxCell>
        <mxCell id="0cfVb7peKYmuDnX3eAUY-4" value="UserManagement" style="rounded=0;whiteSpace=wrap;html=1;strokeColor=#B3B3B3;" parent="1" vertex="1">
          <mxGeometry x="1320" y="462" width="150" height="20" as="geometry" />
        </mxCell>
        <mxCell id="rJroq5MfoL-u47yV4zEL-61" value="" style="rounded=0;whiteSpace=wrap;html=1;strokeColor=#B3B3B3;" parent="1" vertex="1">
          <mxGeometry x="170" y="890" width="560" height="175" as="geometry" />
        </mxCell>
        <mxCell id="rJroq5MfoL-u47yV4zEL-62" value="" style="rounded=0;whiteSpace=wrap;html=1;strokeColor=#B3B3B3;" parent="1" vertex="1">
          <mxGeometry x="170" y="870" width="150" height="20" as="geometry" />
        </mxCell>
        <mxCell id="rJroq5MfoL-u47yV4zEL-63" value="General module" style="text;html=1;align=center;verticalAlign=middle;whiteSpace=wrap;rounded=0;" parent="1" vertex="1">
          <mxGeometry x="169" y="867" width="107" height="30" as="geometry" />
        </mxCell>
        <mxCell id="rJroq5MfoL-u47yV4zEL-84" value="&lt;span style=&quot;font-weight: normal;&quot;&gt;User&lt;/span&gt;" style="swimlane;fontStyle=1;align=center;verticalAlign=top;childLayout=stackLayout;horizontal=1;startSize=26;horizontalStack=0;resizeParent=1;resizeParentMax=0;resizeLast=0;collapsible=1;marginBottom=0;whiteSpace=wrap;html=1;strokeColor=#B3B3B3;" parent="1" vertex="1">
          <mxGeometry x="1356" y="505" width="260" height="150" as="geometry" />
        </mxCell>
        <mxCell id="rJroq5MfoL-u47yV4zEL-85" value="&amp;nbsp;" style="text;strokeColor=none;fillColor=none;align=left;verticalAlign=top;spacingLeft=4;spacingRight=4;overflow=hidden;rotatable=0;points=[[0,0.5],[1,0.5]];portConstraint=eastwest;whiteSpace=wrap;html=1;" parent="rJroq5MfoL-u47yV4zEL-84" vertex="1">
          <mxGeometry y="26" width="260" height="26" as="geometry" />
        </mxCell>
        <mxCell id="rJroq5MfoL-u47yV4zEL-86" value="" style="line;strokeWidth=1;fillColor=none;align=left;verticalAlign=middle;spacingTop=-1;spacingLeft=3;spacingRight=3;rotatable=0;labelPosition=right;points=[];portConstraint=eastwest;strokeColor=inherit;" parent="rJroq5MfoL-u47yV4zEL-84" vertex="1">
          <mxGeometry y="52" width="260" height="8" as="geometry" />
        </mxCell>
        <mxCell id="rJroq5MfoL-u47yV4zEL-92" value="&lt;font style=&quot;color: rgb(179, 179, 179);&quot;&gt;+isChef(): boolean&lt;/font&gt;&lt;div&gt;&lt;font style=&quot;color: rgb(179, 179, 179);&quot;&gt;+isOrganizer(): boolean&lt;/font&gt;&lt;/div&gt;&lt;div&gt;&lt;font style=&quot;color: rgb(179, 179, 179);&quot;&gt;+isServiceStaff(): boolean&lt;/font&gt;&lt;/div&gt;" style="text;strokeColor=none;fillColor=none;align=left;verticalAlign=top;spacingLeft=4;spacingRight=4;overflow=hidden;rotatable=0;points=[[0,0.5],[1,0.5]];portConstraint=eastwest;whiteSpace=wrap;html=1;" parent="rJroq5MfoL-u47yV4zEL-84" vertex="1">
          <mxGeometry y="60" width="260" height="90" as="geometry" />
        </mxCell>
        <mxCell id="0cfVb7peKYmuDnX3eAUY-19" value="&lt;span style=&quot;font-weight: normal;&quot;&gt;UserManager&lt;/span&gt;" style="swimlane;fontStyle=1;align=center;verticalAlign=top;childLayout=stackLayout;horizontal=1;startSize=26;horizontalStack=0;resizeParent=1;resizeParentMax=0;resizeLast=0;collapsible=1;marginBottom=0;whiteSpace=wrap;html=1;strokeColor=#B3B3B3;" parent="1" vertex="1">
          <mxGeometry x="1357" y="753" width="260" height="210" as="geometry" />
        </mxCell>
        <mxCell id="0cfVb7peKYmuDnX3eAUY-20" value="&amp;nbsp;" style="text;strokeColor=#B3B3B3;fillColor=none;align=left;verticalAlign=top;spacingLeft=4;spacingRight=4;overflow=hidden;rotatable=0;points=[[0,0.5],[1,0.5]];portConstraint=eastwest;whiteSpace=wrap;html=1;" parent="0cfVb7peKYmuDnX3eAUY-19" vertex="1">
          <mxGeometry y="26" width="260" height="26" as="geometry" />
        </mxCell>
        <mxCell id="0cfVb7peKYmuDnX3eAUY-25" value="&lt;b&gt;&lt;font style=&quot;color: rgb(179, 179, 179);&quot;&gt;event sender methods&lt;/font&gt;&lt;/b&gt;" style="text;strokeColor=none;fillColor=none;align=left;verticalAlign=top;spacingLeft=4;spacingRight=4;overflow=hidden;rotatable=0;points=[[0,0.5],[1,0.5]];portConstraint=eastwest;whiteSpace=wrap;html=1;" parent="0cfVb7peKYmuDnX3eAUY-19" vertex="1">
          <mxGeometry y="52" width="260" height="58" as="geometry" />
        </mxCell>
        <mxCell id="0cfVb7peKYmuDnX3eAUY-21" value="" style="line;strokeWidth=1;fillColor=none;align=left;verticalAlign=middle;spacingTop=-1;spacingLeft=3;spacingRight=3;rotatable=0;labelPosition=right;points=[];portConstraint=eastwest;strokeColor=inherit;" parent="0cfVb7peKYmuDnX3eAUY-19" vertex="1">
          <mxGeometry y="110" width="260" height="8" as="geometry" />
        </mxCell>
        <mxCell id="0cfVb7peKYmuDnX3eAUY-22" value="&lt;b&gt;&lt;font style=&quot;color: rgb(179, 179, 179);&quot;&gt;operations methods&lt;/font&gt;&lt;/b&gt;&lt;div&gt;&lt;font style=&quot;color: rgb(179, 179, 179);&quot;&gt;+getCurrentUser(): User&lt;/font&gt;&lt;b&gt;&lt;/b&gt;&lt;/div&gt;" style="text;strokeColor=none;fillColor=none;align=left;verticalAlign=top;spacingLeft=4;spacingRight=4;overflow=hidden;rotatable=0;points=[[0,0.5],[1,0.5]];portConstraint=eastwest;whiteSpace=wrap;html=1;" parent="0cfVb7peKYmuDnX3eAUY-19" vertex="1">
          <mxGeometry y="118" width="260" height="92" as="geometry" />
        </mxCell>
        <mxCell id="rJroq5MfoL-u47yV4zEL-94" value="" style="endArrow=block;endSize=16;endFill=0;html=1;rounded=0;strokeColor=#B3B3B3;" parent="1" edge="1">
          <mxGeometry width="160" relative="1" as="geometry">
            <mxPoint x="370" y="971.5200000000001" as="sourcePoint" />
            <mxPoint x="530" y="971.5200000000001" as="targetPoint" />
          </mxGeometry>
        </mxCell>
        <mxCell id="rJroq5MfoL-u47yV4zEL-100" value="&lt;span style=&quot;font-weight: normal;&quot;&gt;&lt;font style=&quot;color: rgb(179, 179, 179);&quot;&gt;UseCaseLogicException&lt;/font&gt;&lt;/span&gt;" style="swimlane;fontStyle=1;align=center;verticalAlign=top;childLayout=stackLayout;horizontal=1;startSize=26;horizontalStack=0;resizeParent=1;resizeParentMax=0;resizeLast=0;collapsible=1;marginBottom=0;whiteSpace=wrap;html=1;strokeColor=#B3B3B3;" parent="1" vertex="1">
          <mxGeometry x="210" y="937" width="160" height="70" as="geometry" />
        </mxCell>
        <mxCell id="rJroq5MfoL-u47yV4zEL-103" value="&amp;nbsp;" style="text;strokeColor=none;fillColor=none;align=left;verticalAlign=top;spacingLeft=4;spacingRight=4;overflow=hidden;rotatable=0;points=[[0,0.5],[1,0.5]];portConstraint=eastwest;whiteSpace=wrap;html=1;" parent="rJroq5MfoL-u47yV4zEL-100" vertex="1">
          <mxGeometry y="26" width="160" height="44" as="geometry" />
        </mxCell>
        <mxCell id="rJroq5MfoL-u47yV4zEL-104" value="&lt;span style=&quot;font-weight: normal;&quot;&gt;&lt;font style=&quot;color: rgb(179, 179, 179);&quot;&gt;Exception&lt;/font&gt;&lt;/span&gt;" style="swimlane;fontStyle=1;align=center;verticalAlign=top;childLayout=stackLayout;horizontal=1;startSize=26;horizontalStack=0;resizeParent=1;resizeParentMax=0;resizeLast=0;collapsible=1;marginBottom=0;whiteSpace=wrap;html=1;strokeColor=#B3B3B3;" parent="1" vertex="1">
          <mxGeometry x="530" y="937" width="160" height="70" as="geometry" />
        </mxCell>
        <mxCell id="rJroq5MfoL-u47yV4zEL-105" value="&amp;nbsp;" style="text;strokeColor=none;fillColor=none;align=left;verticalAlign=top;spacingLeft=4;spacingRight=4;overflow=hidden;rotatable=0;points=[[0,0.5],[1,0.5]];portConstraint=eastwest;whiteSpace=wrap;html=1;" parent="rJroq5MfoL-u47yV4zEL-104" vertex="1">
          <mxGeometry y="26" width="160" height="44" as="geometry" />
        </mxCell>
        <mxCell id="0cfVb7peKYmuDnX3eAUY-42" value="" style="rounded=0;whiteSpace=wrap;html=1;strokeColor=#B3B3B3;fontColor=#666666;" parent="1" vertex="1">
          <mxGeometry x="1320" y="143" width="356" height="230" as="geometry" />
        </mxCell>
        <mxCell id="0cfVb7peKYmuDnX3eAUY-43" value="RecipeManagement" style="rounded=0;whiteSpace=wrap;html=1;strokeColor=#B3B3B3;fontColor=#666666;" parent="1" vertex="1">
          <mxGeometry x="1320" y="123" width="130" height="20" as="geometry" />
        </mxCell>
        <mxCell id="0cfVb7peKYmuDnX3eAUY-44" value="Recipe" style="swimlane;fontStyle=1;align=center;verticalAlign=top;childLayout=stackLayout;horizontal=1;startSize=26;horizontalStack=0;resizeParent=1;resizeParentMax=0;resizeLast=0;collapsible=1;marginBottom=0;whiteSpace=wrap;html=1;strokeColor=#B3B3B3;fontColor=#666666;" parent="1" vertex="1">
          <mxGeometry x="1350" y="173" width="150" height="52" as="geometry" />
        </mxCell>
        <mxCell id="0cfVb7peKYmuDnX3eAUY-45" value="-name" style="text;strokeColor=#B3B3B3;fillColor=none;align=left;verticalAlign=top;spacingLeft=4;spacingRight=4;overflow=hidden;rotatable=0;points=[[0,0.5],[1,0.5]];portConstraint=eastwest;whiteSpace=wrap;html=1;fontColor=#666666;" parent="0cfVb7peKYmuDnX3eAUY-44" vertex="1">
          <mxGeometry y="26" width="150" height="26" as="geometry" />
        </mxCell>
        <mxCell id="0cfVb7peKYmuDnX3eAUY-50" value="RecipeManager" style="swimlane;fontStyle=1;align=center;verticalAlign=top;childLayout=stackLayout;horizontal=1;startSize=26;horizontalStack=0;resizeParent=1;resizeParentMax=0;resizeLast=0;collapsible=1;marginBottom=0;whiteSpace=wrap;html=1;strokeColor=#B3B3B3;fontColor=#666666;" parent="1" vertex="1">
          <mxGeometry x="1350" y="258" width="220" height="78" as="geometry" />
        </mxCell>
        <mxCell id="0cfVb7peKYmuDnX3eAUY-51" value="&amp;nbsp;" style="text;strokeColor=#B3B3B3;fillColor=none;align=left;verticalAlign=top;spacingLeft=4;spacingRight=4;overflow=hidden;rotatable=0;points=[[0,0.5],[1,0.5]];portConstraint=eastwest;whiteSpace=wrap;html=1;fontColor=#666666;" parent="0cfVb7peKYmuDnX3eAUY-50" vertex="1">
          <mxGeometry y="26" width="220" height="26" as="geometry" />
        </mxCell>
        <mxCell id="0cfVb7peKYmuDnX3eAUY-54" value="+getRecipeBook(): ArrayList&amp;lt;Recipe&amp;gt;" style="text;strokeColor=#B3B3B3;fillColor=none;align=left;verticalAlign=top;spacingLeft=4;spacingRight=4;overflow=hidden;rotatable=0;points=[[0,0.5],[1,0.5]];portConstraint=eastwest;whiteSpace=wrap;html=1;fontColor=#666666;" parent="0cfVb7peKYmuDnX3eAUY-50" vertex="1">
          <mxGeometry y="52" width="220" height="26" as="geometry" />
        </mxCell>
        <mxCell id="rJroq5MfoL-u47yV4zEL-107" value="Menu" style="swimlane;fontStyle=1;align=center;verticalAlign=top;childLayout=stackLayout;horizontal=1;startSize=26;horizontalStack=0;resizeParent=1;resizeParentMax=0;resizeLast=0;collapsible=1;marginBottom=0;whiteSpace=wrap;html=1;" parent="1" vertex="1">
          <mxGeometry x="730" y="160" width="360" height="244" as="geometry" />
        </mxCell>
        <mxCell id="rJroq5MfoL-u47yV4zEL-108" value="-title: String&lt;div&gt;-published: boolean&lt;/div&gt;&lt;div&gt;-inUse: boolean&lt;/div&gt;&lt;div&gt;-features: String[]&lt;/div&gt;&lt;div&gt;-featureValues: booleans[]&lt;/div&gt;" style="text;strokeColor=none;fillColor=none;align=left;verticalAlign=top;spacingLeft=4;spacingRight=4;overflow=hidden;rotatable=0;points=[[0,0.5],[1,0.5]];portConstraint=eastwest;whiteSpace=wrap;html=1;" parent="rJroq5MfoL-u47yV4zEL-107" vertex="1">
          <mxGeometry y="26" width="360" height="84" as="geometry" />
        </mxCell>
        <mxCell id="rJroq5MfoL-u47yV4zEL-109" value="" style="line;strokeWidth=1;fillColor=none;align=left;verticalAlign=middle;spacingTop=-1;spacingLeft=3;spacingRight=3;rotatable=0;labelPosition=right;points=[];portConstraint=eastwest;strokeColor=inherit;" parent="rJroq5MfoL-u47yV4zEL-107" vertex="1">
          <mxGeometry y="110" width="360" height="8" as="geometry" />
        </mxCell>
        <mxCell id="rJroq5MfoL-u47yV4zEL-110" value="+create(owner: User, title: String, features: String[])&lt;div&gt;+addSection(name: String)&lt;/div&gt;&lt;div&gt;+addItem(r:Recipe, sec? Section, desc?: String)&lt;/div&gt;&lt;div&gt;+isOwner(user:User): boolean&lt;/div&gt;&lt;div&gt;+isInUse(): boolean&lt;/div&gt;&lt;div&gt;+hasSection(sec:Section): boolean&lt;/div&gt;&lt;div&gt;+sectionsSize(): int&lt;/div&gt;&lt;div&gt;+moveSection(sec: Section, pos: int)&lt;br&gt;&lt;div&gt;&lt;br&gt;&lt;/div&gt;&lt;/div&gt;" style="text;strokeColor=none;fillColor=none;align=left;verticalAlign=top;spacingLeft=4;spacingRight=4;overflow=hidden;rotatable=0;points=[[0,0.5],[1,0.5]];portConstraint=eastwest;whiteSpace=wrap;html=1;" parent="rJroq5MfoL-u47yV4zEL-107" vertex="1">
          <mxGeometry y="118" width="360" height="126" as="geometry" />
        </mxCell>
        <mxCell id="0cfVb7peKYmuDnX3eAUY-56" value="" style="rounded=0;whiteSpace=wrap;html=1;strokeColor=#B3B3B3;fontColor=#666666;" parent="1" vertex="1">
          <mxGeometry x="1800" y="649" width="550" height="670" as="geometry" />
        </mxCell>
        <mxCell id="0cfVb7peKYmuDnX3eAUY-57" value="EventManagement" style="rounded=0;whiteSpace=wrap;html=1;strokeColor=#B3B3B3;fontColor=#666666;" parent="1" vertex="1">
          <mxGeometry x="1800" y="629" width="130" height="20" as="geometry" />
        </mxCell>
        <mxCell id="0cfVb7peKYmuDnX3eAUY-60" value="Service" style="swimlane;fontStyle=1;align=center;verticalAlign=top;childLayout=stackLayout;horizontal=1;startSize=26;horizontalStack=0;resizeParent=1;resizeParentMax=0;resizeLast=0;collapsible=1;marginBottom=0;whiteSpace=wrap;html=1;strokeColor=#B3B3B3;fontColor=#666666;" parent="1" vertex="1">
          <mxGeometry x="1830" y="689" width="300" height="204" as="geometry" />
        </mxCell>
        <mxCell id="0cfVb7peKYmuDnX3eAUY-61" value="-name: String&lt;div&gt;-date: Date&lt;br&gt;-timeStart: Time&lt;br&gt;-timeEnd: Time&lt;br&gt;-partecipants: int&lt;/div&gt;" style="text;strokeColor=none;fillColor=none;align=left;verticalAlign=top;spacingLeft=4;spacingRight=4;overflow=hidden;rotatable=0;points=[[0,0.5],[1,0.5]];portConstraint=eastwest;whiteSpace=wrap;html=1;fontColor=#666666;" parent="0cfVb7peKYmuDnX3eAUY-60" vertex="1">
          <mxGeometry y="26" width="300" height="84" as="geometry" />
        </mxCell>
        <mxCell id="0cfVb7peKYmuDnX3eAUY-65" value="+isAssociated(user: User): boolean&lt;div&gt;+getDiners(): int&lt;/div&gt;" style="text;strokeColor=#B3B3B3;fillColor=none;align=left;verticalAlign=top;spacingLeft=4;spacingRight=4;overflow=hidden;rotatable=0;points=[[0,0.5],[1,0.5]];portConstraint=eastwest;whiteSpace=wrap;html=1;fontColor=#666666;" parent="0cfVb7peKYmuDnX3eAUY-60" vertex="1">
          <mxGeometry y="110" width="300" height="94" as="geometry" />
        </mxCell>
        <mxCell id="rJroq5MfoL-u47yV4zEL-116" value="MenuManager" style="swimlane;fontStyle=1;align=center;verticalAlign=top;childLayout=stackLayout;horizontal=1;startSize=26;horizontalStack=0;resizeParent=1;resizeParentMax=0;resizeLast=0;collapsible=1;marginBottom=0;whiteSpace=wrap;html=1;" parent="1" vertex="1">
          <mxGeometry x="210" y="160" width="350" height="280" as="geometry" />
        </mxCell>
        <mxCell id="rJroq5MfoL-u47yV4zEL-117" value="-menuFeatures: String[]" style="text;strokeColor=default;fillColor=none;align=left;verticalAlign=top;spacingLeft=4;spacingRight=4;overflow=hidden;rotatable=0;points=[[0,0.5],[1,0.5]];portConstraint=eastwest;whiteSpace=wrap;html=1;" parent="rJroq5MfoL-u47yV4zEL-116" vertex="1">
          <mxGeometry y="26" width="350" height="26" as="geometry" />
        </mxCell>
        <mxCell id="rJroq5MfoL-u47yV4zEL-118" value="&lt;b&gt;event sender methods&lt;/b&gt;" style="text;strokeColor=none;fillColor=none;align=left;verticalAlign=top;spacingLeft=4;spacingRight=4;overflow=hidden;rotatable=0;points=[[0,0.5],[1,0.5]];portConstraint=eastwest;whiteSpace=wrap;html=1;" parent="rJroq5MfoL-u47yV4zEL-116" vertex="1">
          <mxGeometry y="52" width="350" height="18" as="geometry" />
        </mxCell>
        <mxCell id="0cfVb7peKYmuDnX3eAUY-71" value="&lt;div&gt;+AddReceiver(er: MenuEventReceiver)&lt;/div&gt;&lt;div&gt;+removeReceiver(er: MenuEventReceiver)&lt;/div&gt;&lt;div&gt;-notifySectionAdded(sec: Section)&lt;/div&gt;&lt;div&gt;-notifyMenuItemAdded(mi: MenuItem)&lt;/div&gt;&lt;div&gt;-notifyMenuCreated(m: Menu)&lt;/div&gt;&lt;div&gt;-notifyMenuDeleted(m: Menu)&lt;/div&gt;&lt;div&gt;-notifySelectionsRearranged(m: Menu)&lt;/div&gt;" style="text;strokeColor=none;fillColor=none;align=left;verticalAlign=top;spacingLeft=4;spacingRight=4;overflow=hidden;rotatable=0;points=[[0,0.5],[1,0.5]];portConstraint=eastwest;whiteSpace=wrap;html=1;" parent="rJroq5MfoL-u47yV4zEL-116" vertex="1">
          <mxGeometry y="70" width="350" height="110" as="geometry" />
        </mxCell>
        <mxCell id="rJroq5MfoL-u47yV4zEL-119" value="" style="line;strokeWidth=1;fillColor=none;align=left;verticalAlign=middle;spacingTop=-1;spacingLeft=3;spacingRight=3;rotatable=0;labelPosition=right;points=[];portConstraint=eastwest;strokeColor=inherit;" parent="rJroq5MfoL-u47yV4zEL-116" vertex="1">
          <mxGeometry y="180" width="350" height="8" as="geometry" />
        </mxCell>
        <mxCell id="rJroq5MfoL-u47yV4zEL-120" value="&lt;b&gt;operations methods&lt;/b&gt;" style="text;strokeColor=none;fillColor=none;align=left;verticalAlign=top;spacingLeft=4;spacingRight=4;overflow=hidden;rotatable=0;points=[[0,0.5],[1,0.5]];portConstraint=eastwest;whiteSpace=wrap;html=1;" parent="rJroq5MfoL-u47yV4zEL-116" vertex="1">
          <mxGeometry y="188" width="350" height="22" as="geometry" />
        </mxCell>
        <mxCell id="rJroq5MfoL-u47yV4zEL-121" value="+defineSection(name: String)&lt;div&gt;+insertItem(r: Recipe, sec?: Section, desc?: String)&lt;/div&gt;&lt;div&gt;+createMenu(title: String): Menu&lt;/div&gt;&lt;div&gt;+getRecipeBook(): ArrayList&amp;lt;Recipe&amp;gt;&lt;/div&gt;" style="text;strokeColor=none;fillColor=none;align=left;verticalAlign=top;spacingLeft=4;spacingRight=4;overflow=hidden;rotatable=0;points=[[0,0.5],[1,0.5]];portConstraint=eastwest;whiteSpace=wrap;html=1;" parent="rJroq5MfoL-u47yV4zEL-116" vertex="1">
          <mxGeometry y="210" width="350" height="70" as="geometry" />
        </mxCell>
        <mxCell id="0cfVb7peKYmuDnX3eAUY-75" value="EventManager" style="swimlane;fontStyle=1;align=center;verticalAlign=top;childLayout=stackLayout;horizontal=1;startSize=26;horizontalStack=0;resizeParent=1;resizeParentMax=0;resizeLast=0;collapsible=1;marginBottom=0;whiteSpace=wrap;html=1;strokeColor=#B3B3B3;fontColor=#666666;" parent="1" vertex="1">
          <mxGeometry x="2080" y="959" width="210" height="144" as="geometry" />
        </mxCell>
        <mxCell id="0cfVb7peKYmuDnX3eAUY-80" value="&lt;font style=&quot;color: rgb(255, 255, 255);&quot;&gt;-partecipants: int&lt;/font&gt;" style="text;strokeColor=none;fillColor=none;align=left;verticalAlign=top;spacingLeft=4;spacingRight=4;overflow=hidden;rotatable=0;points=[[0,0.5],[1,0.5]];portConstraint=eastwest;whiteSpace=wrap;html=1;fontColor=#666666;" parent="0cfVb7peKYmuDnX3eAUY-75" vertex="1">
          <mxGeometry y="26" width="210" height="24" as="geometry" />
        </mxCell>
        <mxCell id="0cfVb7peKYmuDnX3eAUY-81" value="+getEventInfo(): ArrayList&amp;lt;Event&amp;gt;" style="text;strokeColor=#B3B3B3;fillColor=none;align=left;verticalAlign=top;spacingLeft=4;spacingRight=4;overflow=hidden;rotatable=0;points=[[0,0.5],[1,0.5]];portConstraint=eastwest;whiteSpace=wrap;html=1;fontColor=#666666;" parent="0cfVb7peKYmuDnX3eAUY-75" vertex="1">
          <mxGeometry y="50" width="210" height="94" as="geometry" />
        </mxCell>
        <mxCell id="0cfVb7peKYmuDnX3eAUY-82" value="Event" style="swimlane;fontStyle=1;align=center;verticalAlign=top;childLayout=stackLayout;horizontal=1;startSize=26;horizontalStack=0;resizeParent=1;resizeParentMax=0;resizeLast=0;collapsible=1;marginBottom=0;whiteSpace=wrap;html=1;strokeColor=#B3B3B3;fontColor=#666666;" parent="1" vertex="1">
          <mxGeometry x="1850" y="1079" width="170" height="166" as="geometry" />
        </mxCell>
        <mxCell id="0cfVb7peKYmuDnX3eAUY-84" value="+description: String&lt;br&gt;-dateStart: Date&lt;br&gt;-dateEnd: Date&lt;br&gt;-partecipants: int" style="text;strokeColor=#B3B3B3;fillColor=none;align=left;verticalAlign=top;spacingLeft=4;spacingRight=4;overflow=hidden;rotatable=0;points=[[0,0.5],[1,0.5]];portConstraint=eastwest;whiteSpace=wrap;html=1;fontColor=#666666;" parent="0cfVb7peKYmuDnX3eAUY-82" vertex="1">
          <mxGeometry y="26" width="170" height="70" as="geometry" />
        </mxCell>
        <mxCell id="0cfVb7peKYmuDnX3eAUY-85" value="+getDiners(): int" style="text;strokeColor=#B3B3B3;fillColor=none;align=left;verticalAlign=top;spacingLeft=4;spacingRight=4;overflow=hidden;rotatable=0;points=[[0,0.5],[1,0.5]];portConstraint=eastwest;whiteSpace=wrap;html=1;fontColor=#666666;" parent="0cfVb7peKYmuDnX3eAUY-82" vertex="1">
          <mxGeometry y="96" width="170" height="70" as="geometry" />
        </mxCell>
        <mxCell id="rJroq5MfoL-u47yV4zEL-127" value="Section" style="swimlane;fontStyle=1;align=center;verticalAlign=top;childLayout=stackLayout;horizontal=1;startSize=26;horizontalStack=0;resizeParent=1;resizeParentMax=0;resizeLast=0;collapsible=1;marginBottom=0;whiteSpace=wrap;html=1;" parent="1" vertex="1">
          <mxGeometry x="590" y="560" width="310" height="120" as="geometry" />
        </mxCell>
        <mxCell id="rJroq5MfoL-u47yV4zEL-128" value="-name: String" style="text;strokeColor=none;fillColor=none;align=left;verticalAlign=top;spacingLeft=4;spacingRight=4;overflow=hidden;rotatable=0;points=[[0,0.5],[1,0.5]];portConstraint=eastwest;whiteSpace=wrap;html=1;" parent="rJroq5MfoL-u47yV4zEL-127" vertex="1">
          <mxGeometry y="26" width="310" height="24" as="geometry" />
        </mxCell>
        <mxCell id="rJroq5MfoL-u47yV4zEL-129" value="" style="line;strokeWidth=1;fillColor=none;align=left;verticalAlign=middle;spacingTop=-1;spacingLeft=3;spacingRight=3;rotatable=0;labelPosition=right;points=[];portConstraint=eastwest;strokeColor=inherit;" parent="rJroq5MfoL-u47yV4zEL-127" vertex="1">
          <mxGeometry y="50" width="310" height="8" as="geometry" />
        </mxCell>
        <mxCell id="rJroq5MfoL-u47yV4zEL-130" value="&lt;div&gt;&lt;div&gt;+create(name: String)&lt;/div&gt;&lt;/div&gt;&lt;div&gt;+create(sec: String)&lt;/div&gt;&lt;div&gt;+addItem(mi: MenuItem)&lt;/div&gt;" style="text;strokeColor=none;fillColor=none;align=left;verticalAlign=top;spacingLeft=4;spacingRight=4;overflow=hidden;rotatable=0;points=[[0,0.5],[1,0.5]];portConstraint=eastwest;whiteSpace=wrap;html=1;" parent="rJroq5MfoL-u47yV4zEL-127" vertex="1">
          <mxGeometry y="58" width="310" height="62" as="geometry" />
        </mxCell>
        <mxCell id="rJroq5MfoL-u47yV4zEL-131" value="MenuItem" style="swimlane;fontStyle=1;align=center;verticalAlign=top;childLayout=stackLayout;horizontal=1;startSize=26;horizontalStack=0;resizeParent=1;resizeParentMax=0;resizeLast=0;collapsible=1;marginBottom=0;whiteSpace=wrap;html=1;" parent="1" vertex="1">
          <mxGeometry x="910" y="710" width="310" height="100" as="geometry" />
        </mxCell>
        <mxCell id="rJroq5MfoL-u47yV4zEL-132" value="-description: String" style="text;strokeColor=none;fillColor=none;align=left;verticalAlign=top;spacingLeft=4;spacingRight=4;overflow=hidden;rotatable=0;points=[[0,0.5],[1,0.5]];portConstraint=eastwest;whiteSpace=wrap;html=1;" parent="rJroq5MfoL-u47yV4zEL-131" vertex="1">
          <mxGeometry y="26" width="310" height="24" as="geometry" />
        </mxCell>
        <mxCell id="rJroq5MfoL-u47yV4zEL-133" value="" style="line;strokeWidth=1;fillColor=none;align=left;verticalAlign=middle;spacingTop=-1;spacingLeft=3;spacingRight=3;rotatable=0;labelPosition=right;points=[];portConstraint=eastwest;strokeColor=inherit;" parent="rJroq5MfoL-u47yV4zEL-131" vertex="1">
          <mxGeometry y="50" width="310" height="8" as="geometry" />
        </mxCell>
        <mxCell id="rJroq5MfoL-u47yV4zEL-134" value="&lt;div&gt;&lt;div&gt;+create(rec: Recipe, desc?: String)&lt;/div&gt;&lt;/div&gt;&lt;div&gt;+create(mi: MenuItem)&lt;/div&gt;" style="text;strokeColor=none;fillColor=none;align=left;verticalAlign=top;spacingLeft=4;spacingRight=4;overflow=hidden;rotatable=0;points=[[0,0.5],[1,0.5]];portConstraint=eastwest;whiteSpace=wrap;html=1;" parent="rJroq5MfoL-u47yV4zEL-131" vertex="1">
          <mxGeometry y="58" width="310" height="42" as="geometry" />
        </mxCell>
        <mxCell id="rJroq5MfoL-u47yV4zEL-135" value="" style="endArrow=block;endSize=16;endFill=0;html=1;rounded=0;exitX=0.001;exitY=0.716;exitDx=0;exitDy=0;exitPerimeter=0;entryX=0.349;entryY=0.018;entryDx=0;entryDy=0;entryPerimeter=0;" parent="1" source="rJroq5MfoL-u47yV4zEL-110" target="rJroq5MfoL-u47yV4zEL-127" edge="1">
          <mxGeometry width="160" relative="1" as="geometry">
            <mxPoint x="650" y="470.0000000000001" as="sourcePoint" />
            <mxPoint x="810" y="470.0000000000001" as="targetPoint" />
            <Array as="points">
              <mxPoint x="700" y="368" />
            </Array>
          </mxGeometry>
        </mxCell>
        <mxCell id="rJroq5MfoL-u47yV4zEL-136" value="sections" style="text;html=1;align=center;verticalAlign=middle;whiteSpace=wrap;rounded=0;" parent="1" vertex="1">
          <mxGeometry x="700" y="450" width="60" height="20" as="geometry" />
        </mxCell>
        <mxCell id="rJroq5MfoL-u47yV4zEL-137" value="0..n" style="text;html=1;align=center;verticalAlign=middle;whiteSpace=wrap;rounded=0;" parent="1" vertex="1">
          <mxGeometry x="705" y="520" width="35" height="20" as="geometry" />
        </mxCell>
        <mxCell id="rJroq5MfoL-u47yV4zEL-139" value="" style="endArrow=block;endSize=16;endFill=0;html=1;rounded=0;exitX=0.227;exitY=1.008;exitDx=0;exitDy=0;exitPerimeter=0;" parent="1" source="rJroq5MfoL-u47yV4zEL-130" edge="1">
          <mxGeometry width="160" relative="1" as="geometry">
            <mxPoint x="950" y="580" as="sourcePoint" />
            <mxPoint x="911" y="770" as="targetPoint" />
            <Array as="points">
              <mxPoint x="660" y="730" />
              <mxPoint x="660" y="770" />
            </Array>
          </mxGeometry>
        </mxCell>
        <mxCell id="rJroq5MfoL-u47yV4zEL-140" value="sectionItems" style="text;html=1;align=center;verticalAlign=middle;whiteSpace=wrap;rounded=0;" parent="1" vertex="1">
          <mxGeometry x="730" y="750" width="60" height="20" as="geometry" />
        </mxCell>
        <mxCell id="rJroq5MfoL-u47yV4zEL-141" value="0..n" style="text;html=1;align=center;verticalAlign=middle;whiteSpace=wrap;rounded=0;" parent="1" vertex="1">
          <mxGeometry x="850" y="770" width="50" height="20" as="geometry" />
        </mxCell>
        <mxCell id="rJroq5MfoL-u47yV4zEL-142" value="" style="endArrow=block;endSize=16;endFill=0;html=1;rounded=0;entryX=0.357;entryY=0.006;entryDx=0;entryDy=0;entryPerimeter=0;" parent="1" edge="1">
          <mxGeometry width="160" relative="1" as="geometry">
            <mxPoint x="958" y="404" as="sourcePoint" />
            <mxPoint x="958.6699999999998" y="710.6000000000001" as="targetPoint" />
            <Array as="points">
              <mxPoint x="958" y="490" />
            </Array>
          </mxGeometry>
        </mxCell>
        <mxCell id="0cfVb7peKYmuDnX3eAUY-86" value="-" style="rounded=0;whiteSpace=wrap;html=1;strokeColor=#000000;fontColor=#000000;" parent="1" vertex="1">
          <mxGeometry x="2430" y="594" width="1080" height="890" as="geometry" />
        </mxCell>
        <mxCell id="0cfVb7peKYmuDnX3eAUY-87" value="KitchenManagement" style="rounded=0;whiteSpace=wrap;html=1;strokeColor=#000000;fontColor=#000000;" parent="1" vertex="1">
          <mxGeometry x="2430" y="575" width="130" height="20" as="geometry" />
        </mxCell>
        <mxCell id="0cfVb7peKYmuDnX3eAUY-88" value="SummarySheet" style="swimlane;fontStyle=1;align=center;verticalAlign=top;childLayout=stackLayout;horizontal=1;startSize=26;horizontalStack=0;resizeParent=1;resizeParentMax=0;resizeLast=0;collapsible=1;marginBottom=0;whiteSpace=wrap;html=1;strokeColor=#000000;fontColor=#000000;" parent="1" vertex="1">
          <mxGeometry x="2460" y="629" width="420" height="270" as="geometry" />
        </mxCell>
        <mxCell id="0cfVb7peKYmuDnX3eAUY-89" value="&lt;font style=&quot;color: rgb(255, 255, 255);&quot;&gt;-name: String&lt;/font&gt;" style="text;strokeColor=#000000;fillColor=none;align=left;verticalAlign=top;spacingLeft=4;spacingRight=4;overflow=hidden;rotatable=0;points=[[0,0.5],[1,0.5]];portConstraint=eastwest;whiteSpace=wrap;html=1;fontColor=#000000;" parent="0cfVb7peKYmuDnX3eAUY-88" vertex="1">
          <mxGeometry y="26" width="420" height="24" as="geometry" />
        </mxCell>
        <mxCell id="0cfVb7peKYmuDnX3eAUY-90" value="&lt;div&gt;&lt;span style=&quot;background-color: rgb(102, 255, 102);&quot;&gt;+addTask(kitchenTask: Recipe)&lt;/span&gt;&lt;/div&gt;&lt;div&gt;+setReferredService(service: Service)&lt;/div&gt;&lt;div&gt;+setReferredEvent(event: Event)&lt;/div&gt;&lt;div&gt;+modifyTask(task: Task, quantity?: String, time?: int, portions?: int): Task&lt;/div&gt;&lt;div&gt;+regCompletedTask(task: Task): Task&lt;/div&gt;&lt;div&gt;+deleteAssignment(task: Task, cook?: Cook, shift?: Shift): Task&lt;/div&gt;&lt;div&gt;+assignTask(task: Task, shift?: Shift, cook?: Cook, quantity?: String, time?: int, portions?: int): Task&lt;/div&gt;&lt;div&gt;&lt;span style=&quot;background-color: rgb(255, 255, 102);&quot;&gt;+sortPreparations(parameters: Map): &lt;span style=&quot;&quot; class=&quot;hljs-keyword&quot;&gt;void&lt;/span&gt;&lt;/span&gt;&lt;/div&gt;&lt;div&gt;&lt;span style=&quot;background-color: rgb(255, 255, 102);&quot;&gt;&lt;span style=&quot;&quot; class=&quot;hljs-keyword&quot;&gt;&lt;div style=&quot;background-color: rgb(251, 251, 251);&quot;&gt;&lt;span style=&quot;background-color: rgb(255, 255, 102);&quot;&gt;+markPreparationAsCooked(preparation: Preparation):&amp;nbsp;&lt;span class=&quot;hljs-keyword&quot;&gt;void&lt;/span&gt;&lt;/span&gt;&lt;/div&gt;&lt;div style=&quot;background-color: rgb(251, 251, 251);&quot;&gt;&lt;span style=&quot;background-color: rgb(255, 255, 102);&quot;&gt;&lt;span class=&quot;hljs-keyword&quot;&gt;&lt;div style=&quot;background-color: rgb(251, 251, 251);&quot;&gt;&lt;span style=&quot;background-color: light-dark(rgb(255, 255, 102), rgb(37, 37, 0)); color: light-dark(rgb(0, 0, 0), rgb(237, 237, 237));&quot;&gt;+optimizePreparations():&amp;nbsp;&lt;/span&gt;&lt;span style=&quot;background-color: light-dark(rgb(255, 255, 102), rgb(37, 37, 0)); color: light-dark(rgb(0, 0, 0), rgb(237, 237, 237));&quot; class=&quot;hljs-keyword&quot;&gt;void&lt;/span&gt;&lt;/div&gt;&lt;div style=&quot;background-color: rgb(251, 251, 251);&quot;&gt;&lt;span style=&quot;background-color: light-dark(rgb(255, 255, 102), rgb(37, 37, 0)); color: light-dark(rgb(0, 0, 0), rgb(237, 237, 237));&quot; class=&quot;hljs-keyword&quot;&gt;+verifyPreparations(): &lt;span class=&quot;hljs-keyword&quot;&gt;void&lt;/span&gt;&lt;/span&gt;&lt;/div&gt;&lt;div&gt;&lt;span style=&quot;background-color: light-dark(rgb(255, 255, 102), rgb(37, 37, 0)); color: light-dark(rgb(0, 0, 0), rgb(237, 237, 237));&quot; class=&quot;hljs-keyword&quot;&gt;&lt;br&gt;&lt;/span&gt;&lt;/div&gt;&lt;/span&gt;&lt;/span&gt;&lt;/div&gt;&lt;div&gt;&lt;span style=&quot;background-color: rgb(255, 255, 102);&quot;&gt;&lt;span class=&quot;hljs-keyword&quot;&gt;&lt;br&gt;&lt;/span&gt;&lt;/span&gt;&lt;/div&gt;&lt;/span&gt;&lt;/span&gt;&lt;/div&gt;&lt;div&gt;&lt;br&gt;&lt;/div&gt;" style="text;strokeColor=#000000;fillColor=none;align=left;verticalAlign=top;spacingLeft=4;spacingRight=4;overflow=hidden;rotatable=0;points=[[0,0.5],[1,0.5]];portConstraint=eastwest;whiteSpace=wrap;html=1;fontColor=#000000;" parent="0cfVb7peKYmuDnX3eAUY-88" vertex="1">
          <mxGeometry y="50" width="420" height="220" as="geometry" />
        </mxCell>
        <mxCell id="0cfVb7peKYmuDnX3eAUY-91" value="TaskManager" style="swimlane;fontStyle=1;align=center;verticalAlign=top;childLayout=stackLayout;horizontal=1;startSize=26;horizontalStack=0;resizeParent=1;resizeParentMax=0;resizeLast=0;collapsible=1;marginBottom=0;whiteSpace=wrap;html=1;strokeColor=#000000;fontColor=#000000;" parent="1" vertex="1">
          <mxGeometry x="3050" y="645" width="410" height="460" as="geometry" />
        </mxCell>
        <mxCell id="0cfVb7peKYmuDnX3eAUY-92" value="&lt;font style=&quot;color: rgb(255, 255, 255);&quot;&gt;-partecipants: int&lt;/font&gt;" style="text;strokeColor=#000000;fillColor=none;align=left;verticalAlign=top;spacingLeft=4;spacingRight=4;overflow=hidden;rotatable=0;points=[[0,0.5],[1,0.5]];portConstraint=eastwest;whiteSpace=wrap;html=1;fontColor=#000000;" parent="0cfVb7peKYmuDnX3eAUY-91" vertex="1">
          <mxGeometry y="26" width="410" height="24" as="geometry" />
        </mxCell>
        <mxCell id="0cfVb7peKYmuDnX3eAUY-93" value="&lt;b&gt;event sender methods&lt;/b&gt;&lt;div&gt;&lt;div&gt;+addReceiver(er: ShiftEventReceiver)&lt;/div&gt;&lt;div&gt;+removeReceiver(er: ShiftEventReceiver)&lt;/div&gt;&lt;div&gt;+notifySummarySheetCreated(sumSheet: SummarySheet)&lt;/div&gt;&lt;div&gt;+notifySummarySheetOpened(sumSheet: SummarySheet)&lt;/div&gt;&lt;div&gt;+notifyAddedTask(task: Task)&lt;/div&gt;&lt;div&gt;+notifyModifyTask(kitchenTask: Recipe, shift?: Shift, cook?: Cook, quantity?: String, time?: int, portions?: int)&lt;/div&gt;&lt;div&gt;+notifyRegCompletedTask(task: Task)&lt;/div&gt;&lt;div&gt;+notifyDeleteAssignment(task: Task)&lt;/div&gt;&lt;div&gt;+notifyAssignTask(kitchenTask: Recipe, shift?: Shift, cook?: Cook, quantity?: String, time?: int, portions?: int)&lt;/div&gt;&lt;/div&gt;&lt;div&gt;&lt;br&gt;&lt;/div&gt;&lt;div&gt;&lt;br&gt;&lt;/div&gt;" style="text;strokeColor=#000000;fillColor=none;align=left;verticalAlign=top;spacingLeft=4;spacingRight=4;overflow=hidden;rotatable=0;points=[[0,0.5],[1,0.5]];portConstraint=eastwest;whiteSpace=wrap;html=1;fontColor=#000000;" parent="0cfVb7peKYmuDnX3eAUY-91" vertex="1">
          <mxGeometry y="50" width="410" height="190" as="geometry" />
        </mxCell>
        <mxCell id="0cfVb7peKYmuDnX3eAUY-100" value="&lt;div&gt;&lt;div&gt;&lt;b&gt;operations methods&lt;/b&gt;&lt;/div&gt;&lt;div&gt;+setCurrentSumSheet(sumSheet: SummarySheet)&lt;/div&gt;&lt;div&gt;&lt;span style=&quot;background-color: rgb(102, 255, 102);&quot;&gt;+generateSummarySheet(service: Service, event: Event): SummarySheet&lt;/span&gt;&lt;/div&gt;&lt;div&gt;&lt;span style=&quot;background-color: rgb(255, 255, 102);&quot;&gt;+openSummarySheet(eventId: &lt;span style=&quot;&quot; class=&quot;hljs-type&quot;&gt;int&lt;/span&gt;): SummarySheet&lt;/span&gt;&lt;/div&gt;&lt;div&gt;&lt;span style=&quot;background-color: rgb(255, 255, 102);&quot;&gt;+viewRecipeBook(): List&amp;lt;Recipe&amp;gt;&lt;/span&gt;&lt;/div&gt;&lt;div&gt;&lt;span style=&quot;background-color: transparent; color: light-dark(rgb(0, 0, 0), rgb(237, 237, 237));&quot;&gt;+addTask(kitchenTask: Recipe): Task&lt;/span&gt;&lt;/div&gt;&lt;div&gt;&lt;span style=&quot;background-color: rgb(102, 255, 102);&quot;&gt;+modifyTask(task: Task, quantity?: String, time?: int, portions?: int): Task&lt;/span&gt;&lt;/div&gt;&lt;div&gt;+regCompletedTask(task: Task): Task&lt;/div&gt;&lt;div&gt;&lt;span style=&quot;background-color: rgb(102, 255, 102);&quot;&gt;+deleteAssignment(task: Task, cook?: Cook, shift?: Shift): Task&lt;/span&gt;&lt;/div&gt;&lt;div&gt;&lt;span style=&quot;background-color: rgb(102, 255, 102);&quot;&gt;+assignTask(task: Task, shift?: Shift, cook?: Cook, quantity?: String, time?: int, portions?: int): Task&lt;/span&gt;&lt;/div&gt;&lt;/div&gt;&lt;div&gt;&lt;br&gt;&lt;/div&gt;" style="text;strokeColor=#000000;fillColor=none;align=left;verticalAlign=top;spacingLeft=4;spacingRight=4;overflow=hidden;rotatable=0;points=[[0,0.5],[1,0.5]];portConstraint=eastwest;whiteSpace=wrap;html=1;fontColor=#000000;" parent="0cfVb7peKYmuDnX3eAUY-91" vertex="1">
          <mxGeometry y="240" width="410" height="220" as="geometry" />
        </mxCell>
        <mxCell id="0cfVb7peKYmuDnX3eAUY-94" value="Task" style="swimlane;fontStyle=1;align=center;verticalAlign=top;childLayout=stackLayout;horizontal=1;startSize=26;horizontalStack=0;resizeParent=1;resizeParentMax=0;resizeLast=0;collapsible=1;marginBottom=0;whiteSpace=wrap;html=1;strokeColor=#000000;fontColor=#000000;" parent="1" vertex="1">
          <mxGeometry x="2570" y="1025" width="360" height="240" as="geometry" />
        </mxCell>
        <mxCell id="0cfVb7peKYmuDnX3eAUY-95" value="&lt;div&gt;-portions: int&lt;/div&gt;&lt;div&gt;-quantity: String&lt;/div&gt;&lt;div&gt;-estimatedTime: int&lt;/div&gt;&lt;div&gt;-completed: boolean&lt;/div&gt;&lt;div&gt;&lt;br&gt;&lt;/div&gt;" style="text;strokeColor=#000000;fillColor=none;align=left;verticalAlign=top;spacingLeft=4;spacingRight=4;overflow=hidden;rotatable=0;points=[[0,0.5],[1,0.5]];portConstraint=eastwest;whiteSpace=wrap;html=1;fontColor=#000000;" parent="0cfVb7peKYmuDnX3eAUY-94" vertex="1">
          <mxGeometry y="26" width="360" height="70" as="geometry" />
        </mxCell>
        <mxCell id="0cfVb7peKYmuDnX3eAUY-96" value="&lt;div&gt;+setPortions(diners: int)&lt;/div&gt;&lt;div&gt;&lt;span style=&quot;background-color: rgb(255, 255, 153);&quot;&gt;+regCompletedTask(): Task&lt;/span&gt;&amp;nbsp;&lt;/div&gt;&lt;div&gt;+modifyTask(task: Task, quantity?: String, time?: int, portions?: int): Task&lt;/div&gt;&lt;div&gt;+assignTask(task: Task, shift?: Shift, cook?: Cook, quantity?: String, time?: int, portions?: int): Task&lt;/div&gt;&lt;div&gt;+deleteAssignment(task: Task, cook?: Cook, shift?: Shift): Task&lt;/div&gt;&lt;div&gt;&lt;br&gt;&lt;/div&gt;" style="text;strokeColor=#000000;fillColor=none;align=left;verticalAlign=top;spacingLeft=4;spacingRight=4;overflow=hidden;rotatable=0;points=[[0,0.5],[1,0.5]];portConstraint=eastwest;whiteSpace=wrap;html=1;fontColor=#000000;" parent="0cfVb7peKYmuDnX3eAUY-94" vertex="1">
          <mxGeometry y="96" width="360" height="144" as="geometry" />
        </mxCell>
        <mxCell id="rJroq5MfoL-u47yV4zEL-143" value="freeitems" style="text;html=1;align=center;verticalAlign=middle;whiteSpace=wrap;rounded=0;" parent="1" vertex="1">
          <mxGeometry x="960" y="560" width="60" height="20" as="geometry" />
        </mxCell>
        <mxCell id="rJroq5MfoL-u47yV4zEL-144" value="0..n" style="text;html=1;align=center;verticalAlign=middle;whiteSpace=wrap;rounded=0;" parent="1" vertex="1">
          <mxGeometry x="953" y="666" width="50" height="20" as="geometry" />
        </mxCell>
        <mxCell id="0cfVb7peKYmuDnX3eAUY-97" value="TaskEventReceiver&lt;br&gt;{Interface}" style="swimlane;fontStyle=1;align=center;verticalAlign=top;childLayout=stackLayout;horizontal=1;startSize=40;horizontalStack=0;resizeParent=1;resizeParentMax=0;resizeLast=0;collapsible=1;marginBottom=0;whiteSpace=wrap;html=1;strokeColor=#000000;fontColor=#000000;" parent="1" vertex="1">
          <mxGeometry x="3000" y="1205" width="440" height="200" as="geometry" />
        </mxCell>
        <mxCell id="0cfVb7peKYmuDnX3eAUY-98" value="&lt;font style=&quot;color: rgb(255, 255, 255);&quot;&gt;-partecipants: int&lt;/font&gt;" style="text;strokeColor=#000000;fillColor=none;align=left;verticalAlign=top;spacingLeft=4;spacingRight=4;overflow=hidden;rotatable=0;points=[[0,0.5],[1,0.5]];portConstraint=eastwest;whiteSpace=wrap;html=1;fontColor=#000000;" parent="0cfVb7peKYmuDnX3eAUY-97" vertex="1">
          <mxGeometry y="40" width="440" height="24" as="geometry" />
        </mxCell>
        <mxCell id="0cfVb7peKYmuDnX3eAUY-99" value="+updateSummarySheetCreated(sumSheet: SummarySheet)&lt;br&gt;&lt;div&gt;&lt;span style=&quot;background-color: transparent; color: light-dark(rgb(0, 0, 0), rgb(237, 237, 237));&quot;&gt;+updateAddedTask(task: Task)&lt;/span&gt;&lt;/div&gt;&lt;div&gt;&lt;span style=&quot;background-color: transparent; color: light-dark(rgb(0, 0, 0), rgb(237, 237, 237));&quot;&gt;+updateModifyTask(task: Task)&lt;/span&gt;&lt;span style=&quot;background-color: transparent; color: light-dark(rgb(0, 0, 0), rgb(237, 237, 237));&quot;&gt;&amp;nbsp;&lt;/span&gt;&lt;/div&gt;&lt;div&gt;&lt;span style=&quot;background-color: transparent; color: light-dark(rgb(0, 0, 0), rgb(237, 237, 237));&quot;&gt;+updateRegCompletedTask(task: Task)&lt;/span&gt;&lt;/div&gt;&lt;div&gt;&lt;span style=&quot;color: light-dark(rgb(0, 0, 0), rgb(237, 237, 237)); background-color: transparent;&quot;&gt;+updateDeleteAssignment(task: Task)&lt;/span&gt;&lt;/div&gt;&lt;div&gt;&lt;span style=&quot;background-color: transparent; color: light-dark(rgb(0, 0, 0), rgb(237, 237, 237));&quot;&gt;+updateAssignTask(task: Task)&lt;/span&gt;&lt;/div&gt;" style="text;strokeColor=#000000;fillColor=none;align=left;verticalAlign=top;spacingLeft=4;spacingRight=4;overflow=hidden;rotatable=0;points=[[0,0.5],[1,0.5]];portConstraint=eastwest;whiteSpace=wrap;html=1;fontColor=#000000;" parent="0cfVb7peKYmuDnX3eAUY-97" vertex="1">
          <mxGeometry y="64" width="440" height="136" as="geometry" />
        </mxCell>
        <mxCell id="rJroq5MfoL-u47yV4zEL-153" value="&lt;span style=&quot;font-weight: normal;&quot;&gt;MenuEventReceiver&lt;/span&gt;&lt;div&gt;&lt;span style=&quot;font-weight: normal;&quot;&gt;{interface}&lt;/span&gt;&lt;/div&gt;" style="swimlane;fontStyle=1;align=center;verticalAlign=top;childLayout=stackLayout;horizontal=1;startSize=40;horizontalStack=0;resizeParent=1;resizeParentMax=0;resizeLast=0;collapsible=1;marginBottom=0;whiteSpace=wrap;html=1;" parent="1" vertex="1">
          <mxGeometry x="217" y="586" width="320" height="164" as="geometry" />
        </mxCell>
        <mxCell id="rJroq5MfoL-u47yV4zEL-154" value="&amp;nbsp;" style="text;strokeColor=none;fillColor=none;align=left;verticalAlign=top;spacingLeft=4;spacingRight=4;overflow=hidden;rotatable=0;points=[[0,0.5],[1,0.5]];portConstraint=eastwest;whiteSpace=wrap;html=1;" parent="rJroq5MfoL-u47yV4zEL-153" vertex="1">
          <mxGeometry y="40" width="320" height="26" as="geometry" />
        </mxCell>
        <mxCell id="rJroq5MfoL-u47yV4zEL-155" value="" style="line;strokeWidth=1;fillColor=none;align=left;verticalAlign=middle;spacingTop=-1;spacingLeft=3;spacingRight=3;rotatable=0;labelPosition=right;points=[];portConstraint=eastwest;strokeColor=inherit;" parent="rJroq5MfoL-u47yV4zEL-153" vertex="1">
          <mxGeometry y="66" width="320" height="8" as="geometry" />
        </mxCell>
        <mxCell id="rJroq5MfoL-u47yV4zEL-156" value="&lt;i&gt;+updateSectionAdded(m: Menu, sec: Section)&lt;/i&gt;&lt;div&gt;&lt;i&gt;+updateMenuItemAdded(m: Menu, mi: MenuItem)&lt;/i&gt;&lt;/div&gt;&lt;div&gt;&lt;i&gt;+updateMenuCreated(m: Menu)&lt;/i&gt;&lt;/div&gt;&lt;div&gt;&lt;i&gt;+updateMenuDeleted(m: Menu)&lt;/i&gt;&lt;/div&gt;&lt;div&gt;&lt;i&gt;+updateSectionsRearranged(m: Menu)&lt;/i&gt;&lt;/div&gt;" style="text;strokeColor=none;fillColor=none;align=left;verticalAlign=top;spacingLeft=4;spacingRight=4;overflow=hidden;rotatable=0;points=[[0,0.5],[1,0.5]];portConstraint=eastwest;whiteSpace=wrap;html=1;" parent="rJroq5MfoL-u47yV4zEL-153" vertex="1">
          <mxGeometry y="74" width="320" height="90" as="geometry" />
        </mxCell>
        <mxCell id="rJroq5MfoL-u47yV4zEL-157" value="" style="endArrow=open;endFill=1;endSize=12;html=1;rounded=0;entryX=-0.001;entryY=0.015;entryDx=0;entryDy=0;entryPerimeter=0;" parent="1" target="rJroq5MfoL-u47yV4zEL-110" edge="1">
          <mxGeometry width="160" relative="1" as="geometry">
            <mxPoint x="560" y="280" as="sourcePoint" />
            <mxPoint x="710" y="281.47" as="targetPoint" />
          </mxGeometry>
        </mxCell>
        <mxCell id="rJroq5MfoL-u47yV4zEL-158" value="" style="endArrow=open;endFill=1;endSize=12;html=1;rounded=0;entryX=0.5;entryY=0;entryDx=0;entryDy=0;" parent="1" target="rJroq5MfoL-u47yV4zEL-153" edge="1">
          <mxGeometry width="160" relative="1" as="geometry">
            <mxPoint x="377" y="440" as="sourcePoint" />
            <mxPoint x="520" y="470" as="targetPoint" />
          </mxGeometry>
        </mxCell>
        <mxCell id="rJroq5MfoL-u47yV4zEL-159" value="eventReceiver" style="text;html=1;align=center;verticalAlign=middle;whiteSpace=wrap;rounded=0;" parent="1" vertex="1">
          <mxGeometry x="388" y="490" width="60" height="20" as="geometry" />
        </mxCell>
        <mxCell id="rJroq5MfoL-u47yV4zEL-160" value="0..n" style="text;html=1;align=center;verticalAlign=middle;whiteSpace=wrap;rounded=0;" parent="1" vertex="1">
          <mxGeometry x="379" y="550" width="35" height="20" as="geometry" />
        </mxCell>
        <mxCell id="rJroq5MfoL-u47yV4zEL-161" value="currentMenu" style="text;html=1;align=center;verticalAlign=middle;whiteSpace=wrap;rounded=0;" parent="1" vertex="1">
          <mxGeometry x="620" y="260" width="60" height="20" as="geometry" />
        </mxCell>
        <mxCell id="rJroq5MfoL-u47yV4zEL-162" value="0..1" style="text;html=1;align=center;verticalAlign=middle;whiteSpace=wrap;rounded=0;" parent="1" vertex="1">
          <mxGeometry x="680" y="290" width="35" height="20" as="geometry" />
        </mxCell>
        <mxCell id="rJroq5MfoL-u47yV4zEL-163" value="" style="endArrow=open;endFill=1;endSize=12;html=1;rounded=0;entryX=1.005;entryY=0.042;entryDx=0;entryDy=0;entryPerimeter=0;strokeColor=#B3B3B3;" parent="1" target="0cfVb7peKYmuDnX3eAUY-45" edge="1">
          <mxGeometry width="160" relative="1" as="geometry">
            <mxPoint x="1570" y="285.74" as="sourcePoint" />
            <mxPoint x="1740" y="284.27" as="targetPoint" />
            <Array as="points">
              <mxPoint x="1606" y="286" />
              <mxPoint x="1606" y="200" />
            </Array>
          </mxGeometry>
        </mxCell>
        <mxCell id="rJroq5MfoL-u47yV4zEL-164" value="&lt;font style=&quot;font-size: 11px;&quot;&gt;recipes&lt;/font&gt;" style="text;html=1;align=center;verticalAlign=middle;whiteSpace=wrap;rounded=0;" parent="1" vertex="1">
          <mxGeometry x="1602" y="233" width="54" height="20" as="geometry" />
        </mxCell>
        <mxCell id="rJroq5MfoL-u47yV4zEL-165" value="&lt;font style=&quot;font-size: 11px;&quot;&gt;0..n&lt;/font&gt;" style="text;html=1;align=center;verticalAlign=middle;whiteSpace=wrap;rounded=0;" parent="1" vertex="1">
          <mxGeometry x="1516" y="205" width="35" height="20" as="geometry" />
        </mxCell>
        <mxCell id="0cfVb7peKYmuDnX3eAUY-101" value="" style="endArrow=open;html=1;rounded=0;entryX=0.5;entryY=0;entryDx=0;entryDy=0;exitX=0.415;exitY=1.003;exitDx=0;exitDy=0;exitPerimeter=0;horizontal=1;endFill=0;" parent="1" source="0cfVb7peKYmuDnX3eAUY-100" target="0cfVb7peKYmuDnX3eAUY-97" edge="1">
          <mxGeometry width="50" height="50" relative="1" as="geometry">
            <mxPoint x="3110" y="1255" as="sourcePoint" />
            <mxPoint x="3160" y="1205" as="targetPoint" />
          </mxGeometry>
        </mxCell>
        <mxCell id="rJroq5MfoL-u47yV4zEL-167" value="itemRecipe" style="text;html=1;align=center;verticalAlign=middle;whiteSpace=wrap;rounded=0;" parent="1" vertex="1">
          <mxGeometry x="1190" y="193" width="60" height="20" as="geometry" />
        </mxCell>
        <mxCell id="rJroq5MfoL-u47yV4zEL-166" value="" style="endArrow=open;endFill=1;endSize=12;html=1;rounded=0;exitX=0.75;exitY=0;exitDx=0;exitDy=0;" parent="1" source="rJroq5MfoL-u47yV4zEL-131" edge="1">
          <mxGeometry width="160" relative="1" as="geometry">
            <mxPoint x="1111" y="700.87" as="sourcePoint" />
            <mxPoint x="1320" y="220" as="targetPoint" />
            <Array as="points">
              <mxPoint x="1143" y="219" />
            </Array>
          </mxGeometry>
        </mxCell>
        <mxCell id="rJroq5MfoL-u47yV4zEL-168" value="" style="endArrow=open;endFill=1;endSize=12;html=1;rounded=0;entryX=0.5;entryY=1.003;entryDx=0;entryDy=0;entryPerimeter=0;exitX=0.5;exitY=0;exitDx=0;exitDy=0;fontColor=#B3B3B3;strokeColor=#B3B3B3;" parent="1" source="0cfVb7peKYmuDnX3eAUY-19" target="rJroq5MfoL-u47yV4zEL-92" edge="1">
          <mxGeometry width="160" relative="1" as="geometry">
            <mxPoint x="1620" y="708" as="sourcePoint" />
            <mxPoint x="1790" y="708" as="targetPoint" />
          </mxGeometry>
        </mxCell>
        <mxCell id="rJroq5MfoL-u47yV4zEL-169" value="currentUser" style="text;html=1;align=center;verticalAlign=middle;whiteSpace=wrap;rounded=0;fontColor=#B3B3B3;" parent="1" vertex="1">
          <mxGeometry x="1491" y="709" width="60" height="20" as="geometry" />
        </mxCell>
        <mxCell id="rJroq5MfoL-u47yV4zEL-170" value="0..1" style="text;html=1;align=center;verticalAlign=middle;whiteSpace=wrap;rounded=0;fontColor=#B3B3B3;" parent="1" vertex="1">
          <mxGeometry x="1486" y="673" width="35" height="20" as="geometry" />
        </mxCell>
        <mxCell id="0cfVb7peKYmuDnX3eAUY-102" value="0..n" style="text;html=1;align=center;verticalAlign=middle;resizable=0;points=[];autosize=1;strokeColor=none;fillColor=none;" parent="1" vertex="1">
          <mxGeometry x="3220" y="1175" width="40" height="30" as="geometry" />
        </mxCell>
        <mxCell id="0cfVb7peKYmuDnX3eAUY-103" value="eventReceivers" style="text;html=1;align=center;verticalAlign=middle;resizable=0;points=[];autosize=1;strokeColor=none;fillColor=none;" parent="1" vertex="1">
          <mxGeometry x="3210" y="1130" width="110" height="30" as="geometry" />
        </mxCell>
        <mxCell id="0cfVb7peKYmuDnX3eAUY-104" value="currentSumSheet" style="text;html=1;align=center;verticalAlign=middle;resizable=0;points=[];autosize=1;strokeColor=none;fillColor=none;" parent="1" vertex="1">
          <mxGeometry x="2910" y="675" width="120" height="30" as="geometry" />
        </mxCell>
        <mxCell id="0cfVb7peKYmuDnX3eAUY-105" value="" style="endArrow=open;html=1;rounded=0;entryX=0.996;entryY=0.102;entryDx=0;entryDy=0;entryPerimeter=0;exitX=0.002;exitY=0.041;exitDx=0;exitDy=0;exitPerimeter=0;endFill=0;" parent="1" source="0cfVb7peKYmuDnX3eAUY-93" target="0cfVb7peKYmuDnX3eAUY-90" edge="1">
          <mxGeometry width="50" height="50" relative="1" as="geometry">
            <mxPoint x="2840" y="825" as="sourcePoint" />
            <mxPoint x="2890" y="775" as="targetPoint" />
          </mxGeometry>
        </mxCell>
        <mxCell id="0cfVb7peKYmuDnX3eAUY-106" value="0..1" style="text;html=1;align=center;verticalAlign=middle;resizable=0;points=[];autosize=1;strokeColor=none;fillColor=none;" parent="1" vertex="1">
          <mxGeometry x="2875" y="699" width="40" height="30" as="geometry" />
        </mxCell>
        <mxCell id="0cfVb7peKYmuDnX3eAUY-107" value="" style="endArrow=open;html=1;rounded=0;exitX=0.566;exitY=0.998;exitDx=0;exitDy=0;exitPerimeter=0;endFill=0;entryX=-0.062;entryY=0.944;entryDx=0;entryDy=0;entryPerimeter=0;" parent="1" source="0cfVb7peKYmuDnX3eAUY-90" target="0cfVb7peKYmuDnX3eAUY-109" edge="1">
          <mxGeometry width="50" height="50" relative="1" as="geometry">
            <mxPoint x="3220" y="965" as="sourcePoint" />
            <mxPoint x="2704" y="855" as="targetPoint" />
          </mxGeometry>
        </mxCell>
        <mxCell id="rJroq5MfoL-u47yV4zEL-171" value="" style="endArrow=open;endFill=1;endSize=12;html=1;rounded=0;entryX=0;entryY=0.068;entryDx=0;entryDy=0;entryPerimeter=0;exitX=0.955;exitY=0.989;exitDx=0;exitDy=0;exitPerimeter=0;" parent="1" source="rJroq5MfoL-u47yV4zEL-110" target="rJroq5MfoL-u47yV4zEL-92" edge="1">
          <mxGeometry width="160" relative="1" as="geometry">
            <mxPoint x="1150" y="556" as="sourcePoint" />
            <mxPoint x="1320" y="556" as="targetPoint" />
            <Array as="points">
              <mxPoint x="1074" y="570" />
            </Array>
          </mxGeometry>
        </mxCell>
        <mxCell id="rJroq5MfoL-u47yV4zEL-172" value="owner" style="text;html=1;align=center;verticalAlign=middle;whiteSpace=wrap;rounded=0;" parent="1" vertex="1">
          <mxGeometry x="1170" y="546" width="60" height="20" as="geometry" />
        </mxCell>
        <mxCell id="rJroq5MfoL-u47yV4zEL-173" value="1" style="text;html=1;align=center;verticalAlign=middle;whiteSpace=wrap;rounded=0;" parent="1" vertex="1">
          <mxGeometry x="1314" y="575" width="35" height="20" as="geometry" />
        </mxCell>
        <mxCell id="0cfVb7peKYmuDnX3eAUY-108" value="myTask" style="text;html=1;align=center;verticalAlign=middle;resizable=0;points=[];autosize=1;strokeColor=none;fillColor=none;" parent="1" vertex="1">
          <mxGeometry x="2700" y="924" width="60" height="30" as="geometry" />
        </mxCell>
        <mxCell id="0cfVb7peKYmuDnX3eAUY-109" value="0..n" style="text;html=1;align=center;verticalAlign=middle;resizable=0;points=[];autosize=1;strokeColor=none;fillColor=none;" parent="1" vertex="1">
          <mxGeometry x="2700" y="995" width="40" height="30" as="geometry" />
        </mxCell>
        <mxCell id="rJroq5MfoL-u47yV4zEL-174" value="" style="rounded=0;whiteSpace=wrap;html=1;" parent="1" vertex="1">
          <mxGeometry x="400" y="1175" width="1360" height="1285" as="geometry" />
        </mxCell>
        <mxCell id="rJroq5MfoL-u47yV4zEL-179" value="&lt;span style=&quot;font-weight: normal;&quot;&gt;TurnManager&lt;/span&gt;" style="swimlane;fontStyle=1;align=center;verticalAlign=top;childLayout=stackLayout;horizontal=1;startSize=26;horizontalStack=0;resizeParent=1;resizeParentMax=0;resizeLast=0;collapsible=1;marginBottom=0;whiteSpace=wrap;html=1;" parent="1" vertex="1">
          <mxGeometry x="570" y="1216" width="350" height="450" as="geometry" />
        </mxCell>
        <mxCell id="rJroq5MfoL-u47yV4zEL-180" value="" style="text;strokeColor=default;fillColor=none;align=left;verticalAlign=top;spacingLeft=4;spacingRight=4;overflow=hidden;rotatable=0;points=[[0,0.5],[1,0.5]];portConstraint=eastwest;whiteSpace=wrap;html=1;" parent="rJroq5MfoL-u47yV4zEL-179" vertex="1">
          <mxGeometry y="26" width="350" height="26" as="geometry" />
        </mxCell>
        <mxCell id="rJroq5MfoL-u47yV4zEL-181" value="&lt;b&gt;event sender methods&lt;/b&gt;" style="text;strokeColor=none;fillColor=none;align=left;verticalAlign=top;spacingLeft=4;spacingRight=4;overflow=hidden;rotatable=0;points=[[0,0.5],[1,0.5]];portConstraint=eastwest;whiteSpace=wrap;html=1;" parent="rJroq5MfoL-u47yV4zEL-179" vertex="1">
          <mxGeometry y="52" width="350" height="18" as="geometry" />
        </mxCell>
        <mxCell id="rJroq5MfoL-u47yV4zEL-182" value="&lt;div&gt;+AddReceiver(er: TurnEventReceiver)&lt;/div&gt;&lt;div&gt;+removeReceiver(er: TurnEventReceiver)&lt;/div&gt;&lt;div&gt;-notifyTurnBoardCreated(turnBoard: TurnBoard)&lt;/div&gt;&lt;div&gt;-notifyDeleteSelectedTurn()&lt;/div&gt;&lt;div&gt;-notifySeparateSelectedGroup(group: Group)&lt;/div&gt;&lt;div&gt;-notifyGroupSelectedTurn(group: Group)&lt;/div&gt;&lt;div&gt;-notifyModifySelectedTurn(turnBoard: TurnBoard)&lt;/div&gt;&lt;div&gt;&lt;br&gt;&lt;/div&gt;" style="text;strokeColor=none;fillColor=none;align=left;verticalAlign=top;spacingLeft=4;spacingRight=4;overflow=hidden;rotatable=0;points=[[0,0.5],[1,0.5]];portConstraint=eastwest;whiteSpace=wrap;html=1;" parent="rJroq5MfoL-u47yV4zEL-179" vertex="1">
          <mxGeometry y="70" width="350" height="110" as="geometry" />
        </mxCell>
        <mxCell id="rJroq5MfoL-u47yV4zEL-183" value="" style="line;strokeWidth=1;fillColor=none;align=left;verticalAlign=middle;spacingTop=-1;spacingLeft=3;spacingRight=3;rotatable=0;labelPosition=right;points=[];portConstraint=eastwest;strokeColor=inherit;" parent="rJroq5MfoL-u47yV4zEL-179" vertex="1">
          <mxGeometry y="180" width="350" height="8" as="geometry" />
        </mxCell>
        <mxCell id="rJroq5MfoL-u47yV4zEL-184" value="&lt;b&gt;operations methods&lt;/b&gt;" style="text;strokeColor=none;fillColor=none;align=left;verticalAlign=top;spacingLeft=4;spacingRight=4;overflow=hidden;rotatable=0;points=[[0,0.5],[1,0.5]];portConstraint=eastwest;whiteSpace=wrap;html=1;" parent="rJroq5MfoL-u47yV4zEL-179" vertex="1">
          <mxGeometry y="188" width="350" height="22" as="geometry" />
        </mxCell>
        <mxCell id="rJroq5MfoL-u47yV4zEL-185" value="+generateTurnBoard(service: Service, event: Event): TurnBoard&lt;div&gt;+setCurrentShiftBoard(turnBoard: TurnBoard)&lt;/div&gt;&lt;div&gt;+deleteSelectedTurn(turns, ArrayList&amp;lt;Turn&amp;gt;&lt;/div&gt;&lt;div&gt;+separateSelectedGroup(groups: Group)&lt;/div&gt;&lt;div&gt;+groupSelectedTurn(turns: ArrayList&amp;lt;Turn&amp;gt;): Group&lt;/div&gt;&lt;div&gt;+modifySelectedTurn(turns: ArrayList&amp;lt;Turn&amp;gt;, prepTime?: Date, rigTime?: Date, place?: String, expirationDate?: Date, endDate?: Date, perfDate?: Date, kitchenFull?: boolean)&lt;/div&gt;&lt;div&gt;+generateKitchenTurn(startTime?: Time, endTime? Time, place?: String, expirationDate?: Date, perfDate?: Date, endDate?: Date): Turn&lt;/div&gt;&lt;div&gt;+getTurnBoard(): TurnBoard&lt;/div&gt;&lt;div&gt;+isFull(): boolean&lt;/div&gt;&lt;div&gt;+insertAvailability(group?: Group, shift?: Shift, cook: Cook)&lt;/div&gt;&lt;div&gt;+deleteAvailability(group?: Group, shift?: Shift, cook: Cook)&lt;/div&gt;" style="text;strokeColor=none;fillColor=none;align=left;verticalAlign=top;spacingLeft=4;spacingRight=4;overflow=hidden;rotatable=0;points=[[0,0.5],[1,0.5]];portConstraint=eastwest;whiteSpace=wrap;html=1;" parent="rJroq5MfoL-u47yV4zEL-179" vertex="1">
          <mxGeometry y="210" width="350" height="240" as="geometry" />
        </mxCell>
        <mxCell id="rJroq5MfoL-u47yV4zEL-186" value="&lt;span style=&quot;font-weight: normal;&quot;&gt;TurnEventReceiver&lt;/span&gt;&lt;div&gt;&lt;span style=&quot;font-weight: normal;&quot;&gt;{interface}&lt;/span&gt;&lt;/div&gt;" style="swimlane;fontStyle=1;align=center;verticalAlign=top;childLayout=stackLayout;horizontal=1;startSize=40;horizontalStack=0;resizeParent=1;resizeParentMax=0;resizeLast=0;collapsible=1;marginBottom=0;whiteSpace=wrap;html=1;" parent="1" vertex="1">
          <mxGeometry x="580" y="1830" width="320" height="200" as="geometry" />
        </mxCell>
        <mxCell id="rJroq5MfoL-u47yV4zEL-187" value="&amp;nbsp;" style="text;strokeColor=none;fillColor=none;align=left;verticalAlign=top;spacingLeft=4;spacingRight=4;overflow=hidden;rotatable=0;points=[[0,0.5],[1,0.5]];portConstraint=eastwest;whiteSpace=wrap;html=1;" parent="rJroq5MfoL-u47yV4zEL-186" vertex="1">
          <mxGeometry y="40" width="320" height="26" as="geometry" />
        </mxCell>
        <mxCell id="rJroq5MfoL-u47yV4zEL-188" value="" style="line;strokeWidth=1;fillColor=none;align=left;verticalAlign=middle;spacingTop=-1;spacingLeft=3;spacingRight=3;rotatable=0;labelPosition=right;points=[];portConstraint=eastwest;strokeColor=inherit;" parent="rJroq5MfoL-u47yV4zEL-186" vertex="1">
          <mxGeometry y="66" width="320" height="8" as="geometry" />
        </mxCell>
        <mxCell id="rJroq5MfoL-u47yV4zEL-189" value="&lt;i&gt;+updateTurnBoardCreator(turnBoard: TurnBoard)&lt;/i&gt;&lt;div&gt;&lt;i&gt;+updateDeleteSelectedTurn()&lt;/i&gt;&lt;i&gt;&lt;/i&gt;&lt;/div&gt;&lt;div&gt;&lt;i&gt;+updateSeparateSelectedGroup(turnBoard: TurnBoard)&lt;/i&gt;&lt;i&gt;&lt;/i&gt;&lt;/div&gt;&lt;div&gt;&lt;i&gt;+updateGroupSelectedShift(group: Group)&lt;/i&gt;&lt;i&gt;&lt;/i&gt;&lt;/div&gt;&lt;div&gt;&lt;i&gt;+updateModifySelectedShift(turnBoard: TurnBoard)&lt;/i&gt;&lt;i&gt;&lt;/i&gt;&lt;/div&gt;&lt;div&gt;&lt;i&gt;+updateGenerateKitchenShift(turn Turn)&lt;/i&gt;&lt;/div&gt;&lt;div&gt;&lt;i&gt;&lt;br&gt;&lt;/i&gt;&lt;/div&gt;&lt;div&gt;&lt;i&gt;&lt;br&gt;&lt;/i&gt;&lt;/div&gt;&lt;div&gt;&lt;i&gt;&lt;br&gt;&lt;/i&gt;&lt;/div&gt;" style="text;strokeColor=none;fillColor=none;align=left;verticalAlign=top;spacingLeft=4;spacingRight=4;overflow=hidden;rotatable=0;points=[[0,0.5],[1,0.5]];portConstraint=eastwest;whiteSpace=wrap;html=1;" parent="rJroq5MfoL-u47yV4zEL-186" vertex="1">
          <mxGeometry y="74" width="320" height="126" as="geometry" />
        </mxCell>
        <mxCell id="rJroq5MfoL-u47yV4zEL-190" value="" style="endArrow=open;endFill=1;endSize=12;html=1;rounded=0;exitX=1.001;exitY=0.429;exitDx=0;exitDy=0;exitPerimeter=0;entryX=0.001;entryY=0.121;entryDx=0;entryDy=0;entryPerimeter=0;" parent="1" source="rJroq5MfoL-u47yV4zEL-182" target="pVjcXcarFRzhSAk6aRJc-4" edge="1">
          <mxGeometry width="160" relative="1" as="geometry">
            <mxPoint x="1020" y="1370" as="sourcePoint" />
            <mxPoint x="1190" y="1370" as="targetPoint" />
          </mxGeometry>
        </mxCell>
        <mxCell id="rJroq5MfoL-u47yV4zEL-191" value="" style="endArrow=open;endFill=1;endSize=12;html=1;rounded=0;entryX=0.5;entryY=0;entryDx=0;entryDy=0;" parent="1" target="rJroq5MfoL-u47yV4zEL-186" edge="1">
          <mxGeometry width="160" relative="1" as="geometry">
            <mxPoint x="740" y="1662" as="sourcePoint" />
            <mxPoint x="880" y="1560" as="targetPoint" />
          </mxGeometry>
        </mxCell>
        <mxCell id="rJroq5MfoL-u47yV4zEL-192" value="eventReceiver" style="text;html=1;align=center;verticalAlign=middle;whiteSpace=wrap;rounded=0;" parent="1" vertex="1">
          <mxGeometry x="752" y="1734" width="60" height="20" as="geometry" />
        </mxCell>
        <mxCell id="rJroq5MfoL-u47yV4zEL-193" value="0..n" style="text;html=1;align=center;verticalAlign=middle;whiteSpace=wrap;rounded=0;" parent="1" vertex="1">
          <mxGeometry x="747" y="1793" width="35" height="20" as="geometry" />
        </mxCell>
        <mxCell id="rJroq5MfoL-u47yV4zEL-194" value="turnBoard" style="text;html=1;align=center;verticalAlign=middle;whiteSpace=wrap;rounded=0;" parent="1" vertex="1">
          <mxGeometry x="1030" y="1317" width="60" height="20" as="geometry" />
        </mxCell>
        <mxCell id="rJroq5MfoL-u47yV4zEL-195" value="0..n" style="text;html=1;align=center;verticalAlign=middle;whiteSpace=wrap;rounded=0;" parent="1" vertex="1">
          <mxGeometry x="1150" y="1353" width="35" height="20" as="geometry" />
        </mxCell>
        <mxCell id="rJroq5MfoL-u47yV4zEL-196" value="" style="rounded=0;whiteSpace=wrap;html=1;" parent="1" vertex="1">
          <mxGeometry x="400" y="1160" width="150" height="20" as="geometry" />
        </mxCell>
        <mxCell id="rJroq5MfoL-u47yV4zEL-197" value="TurnManagement" style="text;html=1;align=center;verticalAlign=middle;whiteSpace=wrap;rounded=0;" parent="1" vertex="1">
          <mxGeometry x="430" y="1155" width="60" height="30" as="geometry" />
        </mxCell>
        <mxCell id="vhyvejNZOjf5mfHsDJfE-1" value="Turn" style="swimlane;fontStyle=1;align=center;verticalAlign=top;childLayout=stackLayout;horizontal=1;startSize=26;horizontalStack=0;resizeParent=1;resizeParentMax=0;resizeLast=0;collapsible=1;marginBottom=0;whiteSpace=wrap;html=1;" parent="1" vertex="1">
          <mxGeometry x="1100" y="1570" width="310" height="260" as="geometry" />
        </mxCell>
        <mxCell id="vhyvejNZOjf5mfHsDJfE-2" value="-expirationDate: Date&lt;div&gt;-preparationPlace: String&lt;/div&gt;&lt;div&gt;-startTime: Time&lt;/div&gt;&lt;div&gt;-endTime: Time&lt;/div&gt;&lt;div&gt;-recurrence: boolean&lt;/div&gt;&lt;div&gt;-staffLimit: int&lt;/div&gt;&lt;div&gt;-currentStaff: int&lt;/div&gt;&lt;div&gt;-endDate: Date&lt;/div&gt;" style="text;strokeColor=none;fillColor=none;align=left;verticalAlign=top;spacingLeft=4;spacingRight=4;overflow=hidden;rotatable=0;points=[[0,0.5],[1,0.5]];portConstraint=eastwest;whiteSpace=wrap;html=1;" parent="vhyvejNZOjf5mfHsDJfE-1" vertex="1">
          <mxGeometry y="26" width="310" height="124" as="geometry" />
        </mxCell>
        <mxCell id="vhyvejNZOjf5mfHsDJfE-3" value="" style="line;strokeWidth=1;fillColor=none;align=left;verticalAlign=middle;spacingTop=-1;spacingLeft=3;spacingRight=3;rotatable=0;labelPosition=right;points=[];portConstraint=eastwest;strokeColor=inherit;" parent="vhyvejNZOjf5mfHsDJfE-1" vertex="1">
          <mxGeometry y="150" width="310" height="8" as="geometry" />
        </mxCell>
        <mxCell id="vhyvejNZOjf5mfHsDJfE-4" value="+modify(place?: String, expirationDate?: Date, endDate?: Date)&lt;div&gt;+isFull(): boolean&lt;/div&gt;&lt;div&gt;+insertAvailability(cook: Cook)&lt;/div&gt;&lt;div&gt;+deleteAvailability(cook: Cook)&lt;/div&gt;&lt;div&gt;+containsCook(cook: Cook): boolean&lt;/div&gt;" style="text;strokeColor=none;fillColor=none;align=left;verticalAlign=top;spacingLeft=4;spacingRight=4;overflow=hidden;rotatable=0;points=[[0,0.5],[1,0.5]];portConstraint=eastwest;whiteSpace=wrap;html=1;" parent="vhyvejNZOjf5mfHsDJfE-1" vertex="1">
          <mxGeometry y="158" width="310" height="102" as="geometry" />
        </mxCell>
        <mxCell id="pVjcXcarFRzhSAk6aRJc-1" value="&lt;span style=&quot;font-weight: 400;&quot;&gt;TurnBoard&lt;/span&gt;" style="swimlane;fontStyle=1;align=center;verticalAlign=top;childLayout=stackLayout;horizontal=1;startSize=40;horizontalStack=0;resizeParent=1;resizeParentMax=0;resizeLast=0;collapsible=1;marginBottom=0;whiteSpace=wrap;html=1;" parent="1" vertex="1">
          <mxGeometry x="1191" y="1246" width="429" height="200" as="geometry" />
        </mxCell>
        <mxCell id="pVjcXcarFRzhSAk6aRJc-2" value="&amp;nbsp;" style="text;strokeColor=none;fillColor=none;align=left;verticalAlign=top;spacingLeft=4;spacingRight=4;overflow=hidden;rotatable=0;points=[[0,0.5],[1,0.5]];portConstraint=eastwest;whiteSpace=wrap;html=1;" parent="pVjcXcarFRzhSAk6aRJc-1" vertex="1">
          <mxGeometry y="40" width="429" height="26" as="geometry" />
        </mxCell>
        <mxCell id="pVjcXcarFRzhSAk6aRJc-3" value="" style="line;strokeWidth=1;fillColor=none;align=left;verticalAlign=middle;spacingTop=-1;spacingLeft=3;spacingRight=3;rotatable=0;labelPosition=right;points=[];portConstraint=eastwest;strokeColor=inherit;" parent="pVjcXcarFRzhSAk6aRJc-1" vertex="1">
          <mxGeometry y="66" width="429" height="8" as="geometry" />
        </mxCell>
        <mxCell id="pVjcXcarFRzhSAk6aRJc-4" value="+modifiySelectedTurn(turn: ArrayList&amp;lt;Turn&amp;gt;, prepTime?: Date, rigTime?: Date, place?: String, expirationDate?: Date, endDate?: Date, perfDate?: Date, kitchenFull?: boolean)&lt;div&gt;+groupSelectedTurn(turns: ArrayList&amp;lt;Turn&amp;gt;: Group&lt;/div&gt;&lt;div&gt;+deleteSelectedTurn(turns: ArrayList&amp;lt;Turn&amp;gt;&lt;/div&gt;&lt;div&gt;+setReferredEvent(event: Event)&lt;/div&gt;&lt;div&gt;+separateSelectedGroup(group: Group)&lt;/div&gt;" style="text;strokeColor=none;fillColor=none;align=left;verticalAlign=top;spacingLeft=4;spacingRight=4;overflow=hidden;rotatable=0;points=[[0,0.5],[1,0.5]];portConstraint=eastwest;whiteSpace=wrap;html=1;" parent="pVjcXcarFRzhSAk6aRJc-1" vertex="1">
          <mxGeometry y="74" width="429" height="126" as="geometry" />
        </mxCell>
        <mxCell id="pVjcXcarFRzhSAk6aRJc-5" value="" style="endArrow=open;endFill=1;endSize=12;html=1;rounded=0;entryX=0.5;entryY=0;entryDx=0;entryDy=0;" parent="1" target="vhyvejNZOjf5mfHsDJfE-1" edge="1">
          <mxGeometry width="160" relative="1" as="geometry">
            <mxPoint x="1255" y="1450" as="sourcePoint" />
            <mxPoint x="1420" y="1493" as="targetPoint" />
          </mxGeometry>
        </mxCell>
        <mxCell id="pVjcXcarFRzhSAk6aRJc-6" value="myTurn" style="text;html=1;align=center;verticalAlign=middle;whiteSpace=wrap;rounded=0;" parent="1" vertex="1">
          <mxGeometry x="1256" y="1485" width="60" height="20" as="geometry" />
        </mxCell>
        <mxCell id="pVjcXcarFRzhSAk6aRJc-7" value="0..n" style="text;html=1;align=center;verticalAlign=middle;whiteSpace=wrap;rounded=0;" parent="1" vertex="1">
          <mxGeometry x="1260" y="1538" width="35" height="20" as="geometry" />
        </mxCell>
        <mxCell id="pVjcXcarFRzhSAk6aRJc-8" value="Group" style="swimlane;fontStyle=1;align=center;verticalAlign=top;childLayout=stackLayout;horizontal=1;startSize=26;horizontalStack=0;resizeParent=1;resizeParentMax=0;resizeLast=0;collapsible=1;marginBottom=0;whiteSpace=wrap;html=1;strokeColor=#B3B3B3;fontColor=#666666;" parent="1" vertex="1">
          <mxGeometry x="1486" y="1570" width="210" height="144" as="geometry" />
        </mxCell>
        <mxCell id="pVjcXcarFRzhSAk6aRJc-9" value="&lt;font style=&quot;color: rgb(255, 255, 255);&quot;&gt;-partecipants: int&lt;/font&gt;" style="text;strokeColor=none;fillColor=none;align=left;verticalAlign=top;spacingLeft=4;spacingRight=4;overflow=hidden;rotatable=0;points=[[0,0.5],[1,0.5]];portConstraint=eastwest;whiteSpace=wrap;html=1;fontColor=#666666;" parent="pVjcXcarFRzhSAk6aRJc-8" vertex="1">
          <mxGeometry y="26" width="210" height="24" as="geometry" />
        </mxCell>
        <mxCell id="pVjcXcarFRzhSAk6aRJc-10" value="+separateSelectedGroup()" style="text;strokeColor=#B3B3B3;fillColor=none;align=left;verticalAlign=top;spacingLeft=4;spacingRight=4;overflow=hidden;rotatable=0;points=[[0,0.5],[1,0.5]];portConstraint=eastwest;whiteSpace=wrap;html=1;fontColor=#666666;" parent="pVjcXcarFRzhSAk6aRJc-8" vertex="1">
          <mxGeometry y="50" width="210" height="94" as="geometry" />
        </mxCell>
        <mxCell id="pVjcXcarFRzhSAk6aRJc-11" value="" style="endArrow=open;endFill=1;endSize=12;html=1;rounded=0;entryX=0.5;entryY=0;entryDx=0;entryDy=0;exitX=0.771;exitY=1.004;exitDx=0;exitDy=0;exitPerimeter=0;" parent="1" source="pVjcXcarFRzhSAk6aRJc-4" edge="1">
          <mxGeometry width="160" relative="1" as="geometry">
            <mxPoint x="1520" y="1450" as="sourcePoint" />
            <mxPoint x="1521" y="1570" as="targetPoint" />
          </mxGeometry>
        </mxCell>
        <mxCell id="pVjcXcarFRzhSAk6aRJc-12" value="group" style="text;html=1;align=center;verticalAlign=middle;whiteSpace=wrap;rounded=0;" parent="1" vertex="1">
          <mxGeometry x="1515" y="1485" width="60" height="20" as="geometry" />
        </mxCell>
        <mxCell id="pVjcXcarFRzhSAk6aRJc-13" value="0..n" style="text;html=1;align=center;verticalAlign=middle;whiteSpace=wrap;rounded=0;" parent="1" vertex="1">
          <mxGeometry x="1526" y="1538" width="35" height="20" as="geometry" />
        </mxCell>
        <mxCell id="pVjcXcarFRzhSAk6aRJc-14" value="" style="endArrow=block;endSize=16;endFill=0;html=1;rounded=0;entryX=0.667;entryY=1.008;entryDx=0;entryDy=0;entryPerimeter=0;" parent="1" target="vhyvejNZOjf5mfHsDJfE-4" edge="1">
          <mxGeometry width="160" relative="1" as="geometry">
            <mxPoint x="1307" y="1960" as="sourcePoint" />
            <mxPoint x="1450" y="1850" as="targetPoint" />
          </mxGeometry>
        </mxCell>
        <mxCell id="pVjcXcarFRzhSAk6aRJc-15" value="" style="endArrow=none;html=1;rounded=0;" parent="1" edge="1">
          <mxGeometry width="50" height="50" relative="1" as="geometry">
            <mxPoint x="1520" y="1960" as="sourcePoint" />
            <mxPoint x="1200" y="1960" as="targetPoint" />
          </mxGeometry>
        </mxCell>
        <mxCell id="pVjcXcarFRzhSAk6aRJc-16" value="KitchenTurn" style="swimlane;fontStyle=1;align=center;verticalAlign=top;childLayout=stackLayout;horizontal=1;startSize=26;horizontalStack=0;resizeParent=1;resizeParentMax=0;resizeLast=0;collapsible=1;marginBottom=0;whiteSpace=wrap;html=1;" parent="1" vertex="1">
          <mxGeometry x="1380" y="2000" width="310" height="120" as="geometry" />
        </mxCell>
        <mxCell id="pVjcXcarFRzhSAk6aRJc-17" value="-perfDate: Fate&lt;div&gt;-kitchenFull: boolean&lt;/div&gt;" style="text;strokeColor=none;fillColor=none;align=left;verticalAlign=top;spacingLeft=4;spacingRight=4;overflow=hidden;rotatable=0;points=[[0,0.5],[1,0.5]];portConstraint=eastwest;whiteSpace=wrap;html=1;" parent="pVjcXcarFRzhSAk6aRJc-16" vertex="1">
          <mxGeometry y="26" width="310" height="44" as="geometry" />
        </mxCell>
        <mxCell id="pVjcXcarFRzhSAk6aRJc-18" value="" style="line;strokeWidth=1;fillColor=none;align=left;verticalAlign=middle;spacingTop=-1;spacingLeft=3;spacingRight=3;rotatable=0;labelPosition=right;points=[];portConstraint=eastwest;strokeColor=inherit;" parent="pVjcXcarFRzhSAk6aRJc-16" vertex="1">
          <mxGeometry y="70" width="310" height="8" as="geometry" />
        </mxCell>
        <mxCell id="pVjcXcarFRzhSAk6aRJc-19" value="+modify(place?: String, expirationDate?: Date, endDate?: Date, perfDate?: Date, kitchenFull: boolean)" style="text;strokeColor=none;fillColor=none;align=left;verticalAlign=top;spacingLeft=4;spacingRight=4;overflow=hidden;rotatable=0;points=[[0,0.5],[1,0.5]];portConstraint=eastwest;whiteSpace=wrap;html=1;" parent="pVjcXcarFRzhSAk6aRJc-16" vertex="1">
          <mxGeometry y="78" width="310" height="42" as="geometry" />
        </mxCell>
        <mxCell id="pVjcXcarFRzhSAk6aRJc-20" value="ServiceTurn" style="swimlane;fontStyle=1;align=center;verticalAlign=top;childLayout=stackLayout;horizontal=1;startSize=26;horizontalStack=0;resizeParent=1;resizeParentMax=0;resizeLast=0;collapsible=1;marginBottom=0;whiteSpace=wrap;html=1;" parent="1" vertex="1">
          <mxGeometry x="1047" y="2000" width="310" height="150" as="geometry" />
        </mxCell>
        <mxCell id="pVjcXcarFRzhSAk6aRJc-21" value="-prepTime?: Time&lt;div&gt;-rigTime?: Time&lt;/div&gt;" style="text;strokeColor=none;fillColor=none;align=left;verticalAlign=top;spacingLeft=4;spacingRight=4;overflow=hidden;rotatable=0;points=[[0,0.5],[1,0.5]];portConstraint=eastwest;whiteSpace=wrap;html=1;" parent="pVjcXcarFRzhSAk6aRJc-20" vertex="1">
          <mxGeometry y="26" width="310" height="44" as="geometry" />
        </mxCell>
        <mxCell id="pVjcXcarFRzhSAk6aRJc-22" value="" style="line;strokeWidth=1;fillColor=none;align=left;verticalAlign=middle;spacingTop=-1;spacingLeft=3;spacingRight=3;rotatable=0;labelPosition=right;points=[];portConstraint=eastwest;strokeColor=inherit;" parent="pVjcXcarFRzhSAk6aRJc-20" vertex="1">
          <mxGeometry y="70" width="310" height="8" as="geometry" />
        </mxCell>
        <mxCell id="pVjcXcarFRzhSAk6aRJc-23" value="+modify(prepTime?: Time,&amp;nbsp;&lt;div&gt;&lt;span style=&quot;white-space: pre;&quot;&gt;	&lt;/span&gt;&lt;span style=&quot;white-space: pre;&quot;&gt;	&lt;/span&gt;rigTime?: Time, place?: String, &lt;span style=&quot;white-space: pre;&quot;&gt;	&lt;/span&gt;&lt;span style=&quot;white-space: pre;&quot;&gt;	&lt;/span&gt;expirationDate?: Date, endDate?: Date, &lt;span style=&quot;white-space: pre;&quot;&gt;	&lt;/span&gt;&lt;span style=&quot;white-space: pre;&quot;&gt;	&lt;/span&gt;timeSTart: Time, timeEnd: Time)&lt;/div&gt;" style="text;strokeColor=none;fillColor=none;align=left;verticalAlign=top;spacingLeft=4;spacingRight=4;overflow=hidden;rotatable=0;points=[[0,0.5],[1,0.5]];portConstraint=eastwest;whiteSpace=wrap;html=1;" parent="pVjcXcarFRzhSAk6aRJc-20" vertex="1">
          <mxGeometry y="78" width="310" height="72" as="geometry" />
        </mxCell>
        <mxCell id="pVjcXcarFRzhSAk6aRJc-27" value="" style="endArrow=open;endFill=1;endSize=12;html=1;rounded=0;entryX=0.73;entryY=0.023;entryDx=0;entryDy=0;entryPerimeter=0;" parent="1" target="pVjcXcarFRzhSAk6aRJc-16" edge="1">
          <mxGeometry width="160" relative="1" as="geometry">
            <mxPoint x="1604" y="1714" as="sourcePoint" />
            <mxPoint x="1605" y="1834" as="targetPoint" />
          </mxGeometry>
        </mxCell>
        <mxCell id="pVjcXcarFRzhSAk6aRJc-28" value="myTurnGroup" style="text;html=1;align=center;verticalAlign=middle;whiteSpace=wrap;rounded=0;" parent="1" vertex="1">
          <mxGeometry x="1602" y="1840" width="88" height="20" as="geometry" />
        </mxCell>
        <mxCell id="pVjcXcarFRzhSAk6aRJc-29" value="0..n" style="text;html=1;align=center;verticalAlign=middle;whiteSpace=wrap;rounded=0;" parent="1" vertex="1">
          <mxGeometry x="1611.5" y="1960" width="35" height="20" as="geometry" />
        </mxCell>
        <mxCell id="C07ndgGxSxnKW_Orm6cC-1" value="Cook" style="swimlane;fontStyle=1;align=center;verticalAlign=top;childLayout=stackLayout;horizontal=1;startSize=26;horizontalStack=0;resizeParent=1;resizeParentMax=0;resizeLast=0;collapsible=1;marginBottom=0;whiteSpace=wrap;html=1;" parent="1" vertex="1">
          <mxGeometry x="940" y="2220" width="190" height="110" as="geometry" />
        </mxCell>
        <mxCell id="C07ndgGxSxnKW_Orm6cC-2" value="- name: String&lt;div&gt;- badge: int&lt;/div&gt;" style="text;strokeColor=none;fillColor=none;align=left;verticalAlign=top;spacingLeft=4;spacingRight=4;overflow=hidden;rotatable=0;points=[[0,0.5],[1,0.5]];portConstraint=eastwest;whiteSpace=wrap;html=1;" parent="C07ndgGxSxnKW_Orm6cC-1" vertex="1">
          <mxGeometry y="26" width="190" height="44" as="geometry" />
        </mxCell>
        <mxCell id="C07ndgGxSxnKW_Orm6cC-3" value="" style="line;strokeWidth=1;fillColor=none;align=left;verticalAlign=middle;spacingTop=-1;spacingLeft=3;spacingRight=3;rotatable=0;labelPosition=right;points=[];portConstraint=eastwest;strokeColor=inherit;" parent="C07ndgGxSxnKW_Orm6cC-1" vertex="1">
          <mxGeometry y="70" width="190" height="8" as="geometry" />
        </mxCell>
        <mxCell id="C07ndgGxSxnKW_Orm6cC-4" value="&lt;font style=&quot;color: rgb(255, 255, 255);&quot;&gt;+modify(prepTime?: Time,&amp;nbsp;&lt;/font&gt;" style="text;strokeColor=none;fillColor=none;align=left;verticalAlign=top;spacingLeft=4;spacingRight=4;overflow=hidden;rotatable=0;points=[[0,0.5],[1,0.5]];portConstraint=eastwest;whiteSpace=wrap;html=1;" parent="C07ndgGxSxnKW_Orm6cC-1" vertex="1">
          <mxGeometry y="78" width="190" height="32" as="geometry" />
        </mxCell>
        <mxCell id="C07ndgGxSxnKW_Orm6cC-5" value="" style="endArrow=none;html=1;rounded=0;exitX=0.456;exitY=0.008;exitDx=0;exitDy=0;exitPerimeter=0;" parent="1" source="pVjcXcarFRzhSAk6aRJc-16" edge="1">
          <mxGeometry width="50" height="50" relative="1" as="geometry">
            <mxPoint x="1260" y="1930" as="sourcePoint" />
            <mxPoint x="1520" y="1960" as="targetPoint" />
          </mxGeometry>
        </mxCell>
        <mxCell id="C07ndgGxSxnKW_Orm6cC-6" value="" style="endArrow=none;html=1;rounded=0;exitX=0.5;exitY=0;exitDx=0;exitDy=0;" parent="1" source="pVjcXcarFRzhSAk6aRJc-20" edge="1">
          <mxGeometry width="50" height="50" relative="1" as="geometry">
            <mxPoint x="1260" y="1930" as="sourcePoint" />
            <mxPoint x="1202" y="1960" as="targetPoint" />
          </mxGeometry>
        </mxCell>
        <mxCell id="C07ndgGxSxnKW_Orm6cC-7" value="" style="endArrow=none;html=1;rounded=0;exitX=0.5;exitY=0;exitDx=0;exitDy=0;entryX=0.151;entryY=1.016;entryDx=0;entryDy=0;entryPerimeter=0;startArrow=open;startFill=0;" parent="1" source="C07ndgGxSxnKW_Orm6cC-1" target="vhyvejNZOjf5mfHsDJfE-4" edge="1">
          <mxGeometry width="50" height="50" relative="1" as="geometry">
            <mxPoint x="1260" y="2020" as="sourcePoint" />
            <mxPoint x="1310" y="1970" as="targetPoint" />
            <Array as="points">
              <mxPoint x="1035" y="1920" />
              <mxPoint x="1147" y="1920" />
            </Array>
          </mxGeometry>
        </mxCell>
        <mxCell id="C07ndgGxSxnKW_Orm6cC-8" value="0..n" style="text;html=1;align=center;verticalAlign=middle;whiteSpace=wrap;rounded=0;" parent="1" vertex="1">
          <mxGeometry x="1042.5" y="2190" width="35" height="20" as="geometry" />
        </mxCell>
        <mxCell id="C07ndgGxSxnKW_Orm6cC-9" value="myCooks" style="text;html=1;align=center;verticalAlign=middle;resizable=0;points=[];autosize=1;strokeColor=none;fillColor=none;" parent="1" vertex="1">
          <mxGeometry x="972.5" y="2050" width="70" height="30" as="geometry" />
        </mxCell>
        <mxCell id="C07ndgGxSxnKW_Orm6cC-11" value="" style="endArrow=none;html=1;rounded=0;exitX=1;exitY=0.5;exitDx=0;exitDy=0;startArrow=open;startFill=0;entryX=0.517;entryY=0.995;entryDx=0;entryDy=0;entryPerimeter=0;" parent="1" source="C07ndgGxSxnKW_Orm6cC-2" target="0cfVb7peKYmuDnX3eAUY-96" edge="1">
          <mxGeometry width="50" height="50" relative="1" as="geometry">
            <mxPoint x="1710" y="1980" as="sourcePoint" />
            <mxPoint x="2710" y="1590" as="targetPoint" />
            <Array as="points">
              <mxPoint x="2760" y="2268" />
            </Array>
          </mxGeometry>
        </mxCell>
        <mxCell id="C07ndgGxSxnKW_Orm6cC-12" value="involvedCooks" style="text;html=1;align=center;verticalAlign=middle;resizable=0;points=[];autosize=1;strokeColor=none;fillColor=none;" parent="1" vertex="1">
          <mxGeometry x="1596" y="2240" width="100" height="30" as="geometry" />
        </mxCell>
        <mxCell id="C07ndgGxSxnKW_Orm6cC-13" value="0..n" style="text;html=1;align=center;verticalAlign=middle;whiteSpace=wrap;rounded=0;" parent="1" vertex="1">
          <mxGeometry x="1130" y="2270" width="35" height="20" as="geometry" />
        </mxCell>
        <mxCell id="wbi7H5y87TiC5Q8AJMWM-1" value="" style="endArrow=none;html=1;rounded=0;entryX=0.058;entryY=0.99;entryDx=0;entryDy=0;entryPerimeter=0;exitX=0.635;exitY=0.986;exitDx=0;exitDy=0;exitPerimeter=0;" parent="1" source="0cfVb7peKYmuDnX3eAUY-96" target="vhyvejNZOjf5mfHsDJfE-4" edge="1">
          <mxGeometry width="50" height="50" relative="1" as="geometry">
            <mxPoint x="1080" y="1990" as="sourcePoint" />
            <mxPoint x="1130" y="1940" as="targetPoint" />
            <Array as="points">
              <mxPoint x="2800" y="2360" />
              <mxPoint x="930" y="2360" />
              <mxPoint x="930" y="1870" />
              <mxPoint x="1118" y="1870" />
            </Array>
          </mxGeometry>
        </mxCell>
        <mxCell id="wbi7H5y87TiC5Q8AJMWM-2" value="involvedTurns" style="text;html=1;align=center;verticalAlign=middle;resizable=0;points=[];autosize=1;strokeColor=none;fillColor=none;" parent="1" vertex="1">
          <mxGeometry x="1602" y="2330" width="100" height="30" as="geometry" />
        </mxCell>
        <mxCell id="wbi7H5y87TiC5Q8AJMWM-4" value="" style="rounded=0;whiteSpace=wrap;html=1;strokeColor=#000000;fontColor=#000000;" parent="1" vertex="1">
          <mxGeometry x="1880" y="1550" width="760" height="630" as="geometry" />
        </mxCell>
        <mxCell id="wbi7H5y87TiC5Q8AJMWM-5" value="AvailabilityManager" style="swimlane;fontStyle=1;align=center;verticalAlign=top;childLayout=stackLayout;horizontal=1;startSize=26;horizontalStack=0;resizeParent=1;resizeParentMax=0;resizeLast=0;collapsible=1;marginBottom=0;whiteSpace=wrap;html=1;strokeColor=#000000;fontColor=#000000;" parent="1" vertex="1">
          <mxGeometry x="2050" y="1590" width="420" height="180" as="geometry" />
        </mxCell>
        <mxCell id="wbi7H5y87TiC5Q8AJMWM-6" value="&lt;font style=&quot;color: rgb(255, 255, 255);&quot;&gt;-name: String&lt;/font&gt;" style="text;strokeColor=#000000;fillColor=none;align=left;verticalAlign=top;spacingLeft=4;spacingRight=4;overflow=hidden;rotatable=0;points=[[0,0.5],[1,0.5]];portConstraint=eastwest;whiteSpace=wrap;html=1;fontColor=#000000;" parent="wbi7H5y87TiC5Q8AJMWM-5" vertex="1">
          <mxGeometry y="26" width="420" height="24" as="geometry" />
        </mxCell>
        <mxCell id="wbi7H5y87TiC5Q8AJMWM-7" value="&lt;div&gt;&lt;b&gt;event sender methods&lt;/b&gt;&lt;/div&gt;&lt;div&gt;+addReceiver(er: TurnEventReceiver)&lt;/div&gt;&lt;div&gt;+removeReceiver(er: TurnEventReceiver&lt;/div&gt;&lt;div&gt;-notifyInsertAvailability()&lt;/div&gt;&lt;div&gt;-notifyDeleteAvailability()&lt;/div&gt;" style="text;strokeColor=#000000;fillColor=none;align=left;verticalAlign=top;spacingLeft=4;spacingRight=4;overflow=hidden;rotatable=0;points=[[0,0.5],[1,0.5]];portConstraint=eastwest;whiteSpace=wrap;html=1;fontColor=#000000;" parent="wbi7H5y87TiC5Q8AJMWM-5" vertex="1">
          <mxGeometry y="50" width="420" height="130" as="geometry" />
        </mxCell>
        <mxCell id="wbi7H5y87TiC5Q8AJMWM-8" value="AvailabilityManagement" style="rounded=0;whiteSpace=wrap;html=1;strokeColor=#000000;fontColor=#000000;" parent="1" vertex="1">
          <mxGeometry x="1880" y="1530" width="140" height="20" as="geometry" />
        </mxCell>
        <mxCell id="wbi7H5y87TiC5Q8AJMWM-11" value="&lt;div&gt;&lt;span style=&quot;background-color: transparent; color: light-dark(rgb(0, 0, 0), rgb(237, 237, 237));&quot;&gt;&lt;b&gt;operations methods&lt;/b&gt;&lt;/span&gt;&lt;/div&gt;&lt;div&gt;&lt;span style=&quot;background-color: transparent; color: light-dark(rgb(0, 0, 0), rgb(237, 237, 237));&quot;&gt;+insertAvailability(group?: Group, Turn?: Turn, cook: Cook)&lt;/span&gt;&lt;/div&gt;&lt;div&gt;&lt;div&gt;&lt;span style=&quot;background-color: transparent; color: light-dark(rgb(0, 0, 0), rgb(237, 237, 237));&quot;&gt;+deleteAvailability(group?: Group, Turn?: Turn, cook: Cook)&lt;/span&gt;&lt;/div&gt;&lt;/div&gt;&lt;div&gt;&lt;span style=&quot;background-color: transparent; color: light-dark(rgb(0, 0, 0), rgb(237, 237, 237));&quot;&gt;&lt;br&gt;&lt;/span&gt;&lt;/div&gt;" style="text;strokeColor=#000000;fillColor=none;align=left;verticalAlign=top;spacingLeft=4;spacingRight=4;overflow=hidden;rotatable=0;points=[[0,0.5],[1,0.5]];portConstraint=eastwest;whiteSpace=wrap;html=1;fontColor=#000000;" parent="1" vertex="1">
          <mxGeometry x="2050" y="1770" width="420" height="70" as="geometry" />
        </mxCell>
        <mxCell id="wbi7H5y87TiC5Q8AJMWM-16" value="AvailabilityEventReceiver&lt;div&gt;{Interface}&lt;/div&gt;" style="swimlane;fontStyle=1;align=center;verticalAlign=top;childLayout=stackLayout;horizontal=1;startSize=40;horizontalStack=0;resizeParent=1;resizeParentMax=0;resizeLast=0;collapsible=1;marginBottom=0;whiteSpace=wrap;html=1;strokeColor=#000000;fontColor=#000000;" parent="1" vertex="1">
          <mxGeometry x="2050" y="1920" width="440" height="200" as="geometry" />
        </mxCell>
        <mxCell id="wbi7H5y87TiC5Q8AJMWM-17" value="&lt;font style=&quot;color: rgb(255, 255, 255);&quot;&gt;-partecipants: int&lt;/font&gt;" style="text;strokeColor=#000000;fillColor=none;align=left;verticalAlign=top;spacingLeft=4;spacingRight=4;overflow=hidden;rotatable=0;points=[[0,0.5],[1,0.5]];portConstraint=eastwest;whiteSpace=wrap;html=1;fontColor=#000000;" parent="wbi7H5y87TiC5Q8AJMWM-16" vertex="1">
          <mxGeometry y="40" width="440" height="24" as="geometry" />
        </mxCell>
        <mxCell id="wbi7H5y87TiC5Q8AJMWM-18" value="+updateInsertAvailability()&lt;div&gt;+updateDeleteAvailability()&lt;/div&gt;" style="text;strokeColor=#000000;fillColor=none;align=left;verticalAlign=top;spacingLeft=4;spacingRight=4;overflow=hidden;rotatable=0;points=[[0,0.5],[1,0.5]];portConstraint=eastwest;whiteSpace=wrap;html=1;fontColor=#000000;" parent="wbi7H5y87TiC5Q8AJMWM-16" vertex="1">
          <mxGeometry y="64" width="440" height="136" as="geometry" />
        </mxCell>
        <mxCell id="wbi7H5y87TiC5Q8AJMWM-19" value="" style="endArrow=none;html=1;rounded=0;exitX=1;exitY=0.25;exitDx=0;exitDy=0;entryX=0.33;entryY=1.009;entryDx=0;entryDy=0;entryPerimeter=0;startArrow=open;startFill=0;" parent="1" source="0cfVb7peKYmuDnX3eAUY-44" target="0cfVb7peKYmuDnX3eAUY-96" edge="1">
          <mxGeometry width="50" height="50" relative="1" as="geometry">
            <mxPoint x="1850" y="470" as="sourcePoint" />
            <mxPoint x="2380" y="1330" as="targetPoint" />
            <Array as="points">
              <mxPoint x="2380" y="186" />
              <mxPoint x="2380" y="1320" />
              <mxPoint x="2689" y="1320" />
            </Array>
          </mxGeometry>
        </mxCell>
        <mxCell id="wbi7H5y87TiC5Q8AJMWM-20" value="kitchenTask" style="text;html=1;align=center;verticalAlign=middle;resizable=0;points=[];autosize=1;strokeColor=none;fillColor=none;" parent="1" vertex="1">
          <mxGeometry x="2370" y="373" width="90" height="30" as="geometry" />
        </mxCell>
        <mxCell id="wbi7H5y87TiC5Q8AJMWM-21" value="0..1" style="text;html=1;align=center;verticalAlign=middle;resizable=0;points=[];autosize=1;strokeColor=none;fillColor=none;" parent="1" vertex="1">
          <mxGeometry x="1510" y="160" width="40" height="30" as="geometry" />
        </mxCell>
        <mxCell id="wbi7H5y87TiC5Q8AJMWM-23" value="" style="endArrow=none;html=1;rounded=0;entryX=0;entryY=0.5;entryDx=0;entryDy=0;exitX=1;exitY=0.5;exitDx=0;exitDy=0;startArrow=open;startFill=0;" parent="1" source="pVjcXcarFRzhSAk6aRJc-4" target="0cfVb7peKYmuDnX3eAUY-65" edge="1">
          <mxGeometry width="50" height="50" relative="1" as="geometry">
            <mxPoint x="1540" y="1040" as="sourcePoint" />
            <mxPoint x="1590" y="990" as="targetPoint" />
            <Array as="points">
              <mxPoint x="1730" y="1383" />
              <mxPoint x="1730" y="846" />
            </Array>
          </mxGeometry>
        </mxCell>
        <mxCell id="wR0gpKaQAdIqBxog8hFo-1" value="0..1" style="text;html=1;align=center;verticalAlign=middle;whiteSpace=wrap;rounded=0;" parent="1" vertex="1">
          <mxGeometry x="1621" y="1360" width="35" height="20" as="geometry" />
        </mxCell>
      </root>
    </mxGraphModel>
  </diagram>
</mxfile>
